<ttFont>
          <CharString index="0">
            hlineto
            -104 callsubr
            return
          </CharString>
          <CharString index="1">
            -56 callsubr
            -134 -63 callgsubr
            160 vlineto
            93 -45 34 -86 vhcurveto
            -61 -27 callgsubr
          </CharString>
          <CharString index="2">
            -105 callgsubr
            61 hlineto
            return
          </CharString>
          <CharString index="3">
            -15 -8 -85 callgsubr
            return
          </CharString>
          <CharString index="4">
            8 -83 callsubr
            return
          </CharString>
          <CharString index="5">
            238 callgsubr
            -104 -77 callsubr
            67 vlineto
            30 6 6 30 vhcurveto
            return
          </CharString>
          <CharString index="6">
            86 -100 callsubr
            return
          </CharString>
          <CharString index="7">
            hlineto
            -92 callsubr
            return
          </CharString>
          <CharString index="8">
            -93 45 -34 86 vhcurveto
            -102 callgsubr
          </CharString>
          <CharString index="9">
            -88 callgsubr
            -93 callsubr
            return
          </CharString>
          <CharString index="10">
            189 callgsubr
            -299 137 callsubr
            return
          </CharString>
          <CharString index="11">
            24 callsubr
            60 return
          </CharString>
          <CharString index="12">
            -89 callsubr
            endchar
          </CharString>
          <CharString index="13">
            -238 -89 callgsubr
            return
          </CharString>
          <CharString index="14">
            -67 callgsubr
            97 -170 -81 -86 callgsubr
            return
          </CharString>
          <CharString index="15">
            120 41 -20 callgsubr
            return
          </CharString>
          <CharString index="16">
            -66 callgsubr
            64 0 callsubr
            82 hlineto
            return
          </CharString>
          <CharString index="17">
            -15 -10 -85 callgsubr
            return
          </CharString>
          <CharString index="18">
            -96 callsubr
            vlineto
            return
          </CharString>
          <CharString index="19">
            -50 callgsubr
            -151 -107 callsubr
            return
          </CharString>
          <CharString index="20">
            124 callgsubr
            202 -86 callsubr
            29 hlineto
            19 4 -9 -15 hvcurveto
            return
          </CharString>
          <CharString index="21">
            vlineto
            -77 callgsubr
            return
          </CharString>
          <CharString index="22">
            hlineto
            109 31 34 73 hvcurveto
            return
          </CharString>
          <CharString index="23">
            -19 -10 -71 callgsubr
            return
          </CharString>
          <CharString index="24">
            5 15 vhcurveto
            return
          </CharString>
          <CharString index="25">
            vlineto
            -101 callgsubr
            return
          </CharString>
          <CharString index="26">
            vlineto
            -99 callsubr
          </CharString>
          <CharString index="27">
            -84 callsubr
            -36 -51 callsubr
            63 hlineto
            return
          </CharString>
          <CharString index="28">
            -103 callgsubr
            154 return
          </CharString>
          <CharString index="29">
            -113 60 -45 callsubr
            113 -60 return
          </CharString>
          <CharString index="30">
            -60 -78 callsubr
            return
          </CharString>
          <CharString index="31">
            121 callsubr
            -65 170 49 vlineto
            15 8 5 9 55 callgsubr
            -134 -20 callsubr
            return
          </CharString>
          <CharString index="32">
            vhcurveto
            -29 -107 callsubr
            return
          </CharString>
          <CharString index="33">
            4 7 2 8 10 vvcurveto
            116 vlineto
            10 -2 8 -4 7 vhcurveto
            return
          </CharString>
          <CharString index="34">
            hlineto
            -75 callgsubr
            return
          </CharString>
          <CharString index="35">
            -37 -15 -17 -30 -4 hvcurveto
            -5 hlineto
            30 -4 -15 17 -37 hhcurveto
            return
          </CharString>
          <CharString index="36">
            -88 callgsubr
            -76 callgsubr
            return
          </CharString>
          <CharString index="37">
            -314 rmoveto
            -80 callsubr
            return
          </CharString>
          <CharString index="38">
            -8 -71 callgsubr
            return
          </CharString>
          <CharString index="39">
            rmoveto
            -78 97 78 hlineto
            -248 -70 callsubr
            return
          </CharString>
          <CharString index="40">
            82 callgsubr
            -152 -103 callgsubr
            324 return
          </CharString>
          <CharString index="41">
            vlineto
            -72 callgsubr
            return
          </CharString>
          <CharString index="42">
            -53 vlineto
            -84 50 -23 73 vhcurveto
            41 93 -31 callsubr
            40 -82 callsubr
            16 -73 callgsubr
            -219 vlineto
            95 callsubr
            -241 -107 callsubr
            97 95 callgsubr
            113 -33 -107 callsubr
            98 vlineto
            26 8 8 26 vhcurveto
            return
          </CharString>
          <CharString index="43">
            298 callsubr
            113 vlineto
            26 5 5 26 vhcurveto
            37 -144 hlineto
            -84 callsubr
            return
          </CharString>
          <CharString index="44">
            -42 callsubr
            -36 90 63 vlineto
            74 -41 32 -89 vhcurveto
            -53 hlineto
            -89 -41 -32 -74 hvcurveto
            return
          </CharString>
          <CharString index="45">
            -33 callgsubr
            hlineto
            endchar
          </CharString>
          <CharString index="46">
            26 8 -8 -26 hvcurveto
            return
          </CharString>
          <CharString index="47">
            hlineto
            17 8 -7 -15 hvcurveto
            return
          </CharString>
          <CharString index="48">
            225 -66 callgsubr
            return
          </CharString>
          <CharString index="49">
            -7 callgsubr
            -42 85 callsubr
            42 -60 callsubr
            -120 147 rmoveto
            -10 callgsubr
            148 49 callsubr
          </CharString>
          <CharString index="50">
            99 callgsubr
            219 48 callsubr
            -102 140 rmoveto
            -107 -35 74 callgsubr
            35 -49 107 vhcurveto
            127 hlineto
            107 35 49 75 hvcurveto
            251 vlineto
            75 -35 49 -107 vhcurveto
            endchar
          </CharString>
          <CharString index="51">
            170 335 -86 callsubr
            29 154 callgsubr
            return
          </CharString>
          <CharString index="52">
            -87 callgsubr
            47 35 callgsubr
            hlineto
            endchar
          </CharString>
          <CharString index="53">
            -106 callgsubr
            -160 -79 callsubr
            return
          </CharString>
          <CharString index="54">
            vlineto
            15 8 7 17 vhcurveto
            return
          </CharString>
          <CharString index="55">
            rmoveto
            296 callgsubr
            54 -175 -77 -36 callgsubr
            136 hlineto
            107 39 49 75 hvcurveto
            132 vlineto
            75 -33 47 -104 vhcurveto
            -94 -58 callgsubr
            95 -53 callsubr
            29 -60 callsubr
            -54 175 77 vlineto
            75 -39 49 -107 vhcurveto
            -137 hlineto
            -107 -39 -49 -75 hvcurveto
            -132 vlineto
            -75 31 -51 104 vhcurveto
            96 -60 callsubr
            return
          </CharString>
          <CharString index="56">
            -97 callgsubr
            84 -82 callsubr
            return
          </CharString>
          <CharString index="57">
            hlineto
            -54 callsubr
            return
          </CharString>
          <CharString index="58">
            -93 51 -34 110 vhcurveto
            return
          </CharString>
          <CharString index="59">
            -314 hlineto
            -92 callgsubr
            return
          </CharString>
          <CharString index="60">
            -7 callgsubr
            -12 256 callsubr
            -165 -41 -36 callgsubr
            98 -21 callgsubr
            55 vlineto
            75 -37 47 224 callsubr
            44 -53 callsubr
            10 -60 callsubr
            -34 162 42 -21 callsubr
            -93 106 callgsubr
            -58 vlineto
            -75 37 -48 226 callgsubr
            return
          </CharString>
          <CharString index="61">
            -106 callgsubr
            -56 211 callgsubr
            69 -73 callgsubr
            -59 57 callgsubr
            -227 170 62 92 -85 callsubr
            return
          </CharString>
          <CharString index="62">
            -529 -96 callsubr
            return
          </CharString>
          <CharString index="63">
            -45 callgsubr
            -160 vlineto
            -93 45 -9 callsubr
            return
          </CharString>
          <CharString index="64">
            vlineto
            19 -5 14 -9 11 vhcurveto
            return
          </CharString>
          <CharString index="65">
            -82 callsubr
            7 -73 callgsubr
            return
          </CharString>
          <CharString index="66">
            -314 -93 callgsubr
            return
          </CharString>
          <CharString index="67">
            -59 callsubr
            117 -64 callgsubr
            36 223 callsubr
            -64 rmoveto
            -15 -69 callsubr
            -195 84 184 hlineto
            -61 callsubr
            -388 -280 64 callgsubr
            return
          </CharString>
          <CharString index="68">
            -92 callgsubr
            134 vlineto
            158 callgsubr
            return
          </CharString>
          <CharString index="69">
            -53 callgsubr
            206 257 callgsubr
            -1 callgsubr
          </CharString>
          <CharString index="70">
            105 38 32 83 hvcurveto
            159 vlineto
            10 -2 8 -4 7 vhcurveto
            return
          </CharString>
          <CharString index="71">
            -19 callsubr
            374 217 callgsubr
            -251 230 callsubr
            return
          </CharString>
          <CharString index="72">
            -92 callgsubr
            114 vlineto
            158 callgsubr
            -24 callgsubr
            -140 vlineto
            40 callsubr
            return
          </CharString>
          <CharString index="73">
            -107 callsubr
            42 -86 callsubr
            20 23 callgsubr
            -19 170 29 62 callsubr
            -54 10 callsubr
            return
          </CharString>
          <CharString index="74">
            24 124 callsubr
            291 -170 -76 136 callgsubr
            120 15 callsubr
          </CharString>
          <CharString index="75">
            vlineto
            19 10 -83 callsubr
            return
          </CharString>
          <CharString index="76">
            -11 -91 callgsubr
            return
          </CharString>
          <CharString index="77">
            hhcurveto
            -95 callgsubr
          </CharString>
          <CharString index="78">
            hlineto
            -106 callgsubr
            -120 -46 callgsubr
            return
          </CharString>
          <CharString index="79">
            rmoveto
            122 129 -122 hlineto
            return
          </CharString>
          <CharString index="80">
            -61 callsubr
            -118 -20 callsubr
            129 return
          </CharString>
          <CharString index="81">
            -34 43 vhcurveto
            -41 51 rlineto
            5 callgsubr
            return
          </CharString>
          <CharString index="82">
            vlineto
            -107 callgsubr
            return
          </CharString>
          <CharString index="83">
            -43 callgsubr
            213 170 60 return
          </CharString>
          <CharString index="84">
            210 callgsubr
            -86 -45 -34 -93 hvcurveto
            return
          </CharString>
          <CharString index="85">
            -73 31 -34 109 vhcurveto
            -38 callsubr
          </CharString>
          <CharString index="86">
            vlineto
            75 -40 49 -107 vhcurveto
            return
          </CharString>
          <CharString index="87">
            vlineto
            -56 callgsubr
            return
          </CharString>
          <CharString index="88">
            -48 callgsubr
            30 return
          </CharString>
          <CharString index="89">
            142 callgsubr
            529 60 vlineto
            endchar
          </CharString>
          <CharString index="90">
            -44 callgsubr
            314 75 vlineto
            return
          </CharString>
          <CharString index="91">
            -77 callgsubr
            69 113 -69 -107 callsubr
            return
          </CharString>
          <CharString index="92">
            -56 callgsubr
            109 return
          </CharString>
          <CharString index="93">
            vlineto
            16 callsubr
            return
          </CharString>
          <CharString index="94">
            vlineto
            109 callgsubr
            return
          </CharString>
          <CharString index="95">
            rmoveto
            80 hlineto
            -37 callsubr
            252 113 -699 168 callgsubr
            651 500 104 callsubr
            -191 hlineto
            -92 callgsubr
            134 -82 callsubr
            10 103 -63 131 callgsubr
            -67 callgsubr
            80 -170 -64 -86 callgsubr
            110 43 vlineto
            -22 callgsubr
            217 -5 rmoveto
            -642 115 callgsubr
          </CharString>
          <CharString index="96">
            rmoveto
            166 callsubr
            -157 hlineto
            -53 -69 -53 69 261 callsubr
            133 -150 rlineto
            return
          </CharString>
          <CharString index="97">
            73 -31 44 -109 vhcurveto
            return
          </CharString>
          <CharString index="98">
            -34 86 vhcurveto
            return
          </CharString>
          <CharString index="99">
            vlineto
            -73 31 -34 109 vhcurveto
            -55 callsubr
          </CharString>
          <CharString index="100">
            rmoveto
            116 -21 callsubr
            -141 hlineto
            -10 callgsubr
            141 -21 callgsubr
            112 -175 -99 107 callgsubr
            -35 85 callgsubr
            35 -60 callsubr
            -103 vlineto
            endchar
          </CharString>
          <CharString index="101">
            -13 callsubr
            529 60 vlineto
            endchar
          </CharString>
          <CharString index="102">
            -43 callsubr
            82 hlineto
            return
          </CharString>
          <CharString index="103">
            -93 41 -34 120 vhcurveto
            -26 callgsubr
          </CharString>
          <CharString index="104">
            -79 callgsubr
            -125 return
          </CharString>
          <CharString index="105">
            225 25 callsubr
            return
          </CharString>
          <CharString index="106">
            vlineto
            15 4 9 19 vhcurveto
            return
          </CharString>
          <CharString index="107">
            -64 callgsubr
            89 -43 callsubr
            return
          </CharString>
          <CharString index="108">
            17 hlineto
            76 25 31 59 hvcurveto
            60 -135 -31 vlineto
            -14 -6 -7 -12 vhcurveto
            -21 -43 52 -58 hhcurveto
            -19 hlineto
            -75 -24 -36 -59 hvcurveto
            -55 135 return
          </CharString>
          <CharString index="109">
            -314 hlineto
            95 callsubr
            return
          </CharString>
          <CharString index="110">
            -14 callsubr
            50 -252 hlineto
            -98 callsubr
            return
          </CharString>
          <CharString index="111">
            237 callgsubr
            175 202 callgsubr
            -159 304 callgsubr
            344 217 callgsubr
            -221 230 callsubr
            -71 107 callgsubr
            -191 -120 239 -21 callgsubr
            504 vlineto
            endchar
          </CharString>
          <CharString index="112">
            52 callgsubr
            375 vlineto
            75 -38 49 -95 vhcurveto
            endchar
          </CharString>
          <CharString index="113">
            215 -93 callgsubr
            460 283 rmoveto
            return
          </CharString>
          <CharString index="114">
            hlineto
            -23 callsubr
            return
          </CharString>
          <CharString index="115">
            rmoveto
            -1216 294 callsubr
            hlineto
            -61 callgsubr
            340 113 -316 -14 callgsubr
            539 69 callsubr
            -90 vlineto
            -92 callgsubr
            74 vlineto
            158 callgsubr
            -24 callgsubr
            -100 vlineto
            -93 45 -9 callsubr
            72 hlineto
            21 16 3 7 13 hvcurveto
            -50 16 42 -20 65 19 callgsubr
          </CharString>
          <CharString index="116">
            vlineto
            -22 callsubr
          </CharString>
          <CharString index="117">
            hlineto
            -15 -8 6 12 hvcurveto
            7 vlineto
            12 8 6 15 vhcurveto
            return
          </CharString>
          <CharString index="118">
            rmoveto
            13 5 6 15 vhcurveto
            38 hlineto
            15 5 -6 -13 hvcurveto
            -14 vlineto
            -13 -5 -6 -15 vhcurveto
            -38 hlineto
            -15 -5 6 13 hvcurveto
            82 -90 rmoveto
            77 25 35 54 hvcurveto
            16 vlineto
            54 -25 36 -77 vhcurveto
            -86 hlineto
            -77 -25 -36 -54 hvcurveto
            -16 vlineto
            -54 25 -35 77 vhcurveto
            return
          </CharString>
          <CharString index="119">
            -314 hlineto
            -39 callsubr
            return
          </CharString>
          <CharString index="120">
            289 callsubr
            31 callgsubr
            return
          </CharString>
          <CharString index="121">
            rmoveto
            -76 callsubr
            60 return
          </CharString>
          <CharString index="122">
            309 callgsubr
            60 hlineto
            endchar
          </CharString>
          <CharString index="123">
            0 callgsubr
            206 -82 callsubr
            return
          </CharString>
          <CharString index="124">
            -107 -40 74 callgsubr
            40 -49 107 vhcurveto
            107 -21 callgsubr
            69 -164 -46 107 callgsubr
            -17 hlineto
            -16 callgsubr
            17 8 -7 -15 hvcurveto
            -46 return
          </CharString>
          <CharString index="125">
            vlineto
            -4 callsubr
          </CharString>
          <CharString index="126">
            36 callgsubr
            -528 -113 179 -59 vlineto
            -88 -8 -31 -36 -81 vvcurveto
            -218 vlineto
            return
          </CharString>
          <CharString index="127">
            21 callgsubr
            460 283 rmoveto
            return
          </CharString>
          <CharString index="128">
            -54 callgsubr
            294 75 vlineto
            return
          </CharString>
          <CharString index="129">
            -155 -113 102 -73 callgsubr
            -124 -25 callsubr
            54 213 callsubr
            -69 callgsubr
            86 hlineto
            return
          </CharString>
          <CharString index="130">
            188 callsubr
            -129 -66 callsubr
            return
          </CharString>
          <CharString index="131">
            170 529 return
          </CharString>
          <CharString index="132">
            -91 callsubr
            -2 callgsubr
            return
          </CharString>
          <CharString index="133">
            rmoveto
            -170 hlineto
            -97 206 callgsubr
            hlineto
            return
          </CharString>
          <CharString index="134">
            363 542 rmoveto
            61 -32 39 -86 vhcurveto
            -102 hlineto
            -86 -32 -39 -61 hvcurveto
            -183 vlineto
            -60 32 -40 86 vhcurveto
            102 hlineto
            86 32 40 60 hvcurveto
            510 -76 rmoveto
            61 -32 39 -86 vhcurveto
            -102 hlineto
            -86 -32 -39 -61 hvcurveto
            -183 vlineto
            -60 32 -40 86 vhcurveto
            102 hlineto
            86 32 40 60 hvcurveto
            -651 279 rmoveto
            -12 -6 -5 -14 vhcurveto
            -16 hlineto
            -14 -6 5 12 hvcurveto
            143 vlineto
            12 6 6 14 vhcurveto
            16 hlineto
            14 6 -6 -12 hvcurveto
            510 -402 rmoveto
            -12 -6 -5 -14 vhcurveto
            -16 hlineto
            -14 -6 5 12 hvcurveto
            143 vlineto
            12 6 6 14 vhcurveto
            16 hlineto
            14 6 -6 -12 hvcurveto
            -164 379 rmoveto
            -361 -642 rlineto
            125 hlineto
            363 642 rlineto
            return
          </CharString>
          <CharString index="135">
            vlineto
            -330 -332 rlineto
            160 hlineto
            170 172 rlineto
            151 callgsubr
          </CharString>
          <CharString index="136">
            272 113 -248 hlineto
            -25 -9 8 26 hvcurveto
            return
          </CharString>
          <CharString index="137">
            rmoveto
            96 -21 callsubr
            -142 hlineto
            -10 callgsubr
            142 -21 callgsubr
            231 -225 -111 50 -107 vlineto
            -15 -8 -7 -17 vhcurveto
            -36 85 callgsubr
            36 hlineto
            17 8 -7 -15 hvcurveto
            -83 vlineto
            endchar
          </CharString>
          <CharString index="138">
            -50 callgsubr
            -164 -107 callsubr
            95 13 vlineto
            146 callgsubr
            114 vlineto
            74 -41 32 -89 vhcurveto
            -53 hlineto
            -89 -41 -32 -74 hvcurveto
            -63 90 36 -42 callsubr
            -71 -79 callgsubr
            -227 7 callsubr
            -189 211 callgsubr
            124 callgsubr
            153 -86 callsubr
            29 hlineto
            19 4 -9 -15 hvcurveto
            -118 170 118 -1 callsubr
            48 -105 hlineto
            -49 callsubr
            return
          </CharString>
          <CharString index="139">
            109 -102 hlineto
            -71 9 -50 0 vhcurveto
            0 -15 52 -34 57 vhcurveto
            43 callsubr
            return
          </CharString>
          <CharString index="140">
            7 callsubr
            251 callgsubr
            124 callgsubr
            162 102 callgsubr
            return
          </CharString>
          <CharString index="141">
            -79 callgsubr
            -11 return
          </CharString>
          <CharString index="142">
            hlineto
            121 callsubr
            return
          </CharString>
          <CharString index="143">
            -53 callsubr
            44 -60 callsubr
            return
          </CharString>
          <CharString index="144">
            -37 callgsubr
            -64 hlineto
            return
          </CharString>
          <CharString index="145">
            -113 60 -422 hlineto
            222 callsubr
            116 -170 -100 vlineto
            -15 -8 -5 -9 vhcurveto
            -52 -91 callgsubr
            406 92 -128 -79 callgsubr
            -31 -113 84 -85 callsubr
            154 60 vlineto
            endchar
          </CharString>
          <CharString index="146">
            37 callsubr
            -109 -31 -34 -73 hvcurveto
            return
          </CharString>
          <CharString index="147">
            17 callgsubr
            93 157 rlineto
            -97 170 return
          </CharString>
          <CharString index="148">
            181 125 -181 131 210 125 -385 -642 394 125 return
          </CharString>
          <CharString index="149">
            rmoveto
            248 callgsubr
            -40 -15 vlineto
            -49 callgsubr
            113 546 vlineto
            -768 -338 2 callgsubr
            969 451 rmoveto
            -1251 -5 callgsubr
            295 -86 callsubr
            45 -114 58 callsubr
          </CharString>
          <CharString index="150">
            -62 -224 -51 callgsubr
            return
          </CharString>
          <CharString index="151">
            1 296 400 rmoveto
            127 callsubr
            97 36 callsubr
            -352 vmoveto
            127 callsubr
            106 36 callsubr
            167 267 rmoveto
            75 -40 49 -107 vhcurveto
            -134 106 callgsubr
            -78 vlineto
            -52 9 -40 38 -21 vhcurveto
            -38 -17 -9 -35 -51 vvcurveto
            -100 284 callsubr
            100 vlineto
            51 -9 35 -39 17 vhcurveto
            39 21 9 40 52 vvcurveto
            endchar
          </CharString>
          <CharString index="152">
            -93 45 -9 callsubr
            170 hlineto
            15 12 2 3 9 hvcurveto
            -83 -95 callsubr
          </CharString>
          <CharString index="153">
            rmoveto
            -230 -202 -78 90 -73 callsubr
            -74 return
          </CharString>
          <CharString index="154">
            47 -32 -31 20 -66 hhcurveto
            -104 -113 15 hlineto
            35 15 -10 -37 25 hvcurveto
            52 -76 -130 -231 rlineto
            195 hlineto
            102 181 rlineto
            return
          </CharString>
          <CharString index="155">
            -53 callsubr
            27 -60 callsubr
            return
          </CharString>
          <CharString index="156">
            -21 callgsubr
            394 -21 callsubr
            endchar
          </CharString>
          <CharString index="157">
            -257 vlineto
            105 callgsubr
            return
          </CharString>
          <CharString index="158">
            239 callgsubr
            -251 230 callsubr
            -54 return
          </CharString>
          <CharString index="159">
            -314 vlineto
            -92 callgsubr
            return
          </CharString>
          <CharString index="160">
            rmoveto
            17 8 -7 -15 hvcurveto
            -126 107 callgsubr
            -69 170 hlineto
            113 -517 rmoveto
            188 hlineto
            -118 235 rlineto
            62 16 24 42 59 vvcurveto
            166 -21 callsubr
            -297 268 callgsubr
            228 11 hlineto
            endchar
          </CharString>
          <CharString index="161">
            272 113 -248 -14 callgsubr
            return
          </CharString>
          <CharString index="162">
            -20 200 495 rmoveto
            15 8 7 17 vhcurveto
            20 -60 callsubr
            -90 107 callgsubr
            -81 -115 81 -60 callsubr
            -99 107 callgsubr
            -20 -58 callgsubr
            63 -175 -86 -36 callgsubr
            123 -21 callgsubr
            100 vlineto
            51 -9 35 -39 17 vhcurveto
            39 21 9 40 52 vvcurveto
            78 285 callgsubr
            -86 175 vlineto
            endchar
          </CharString>
          <CharString index="163">
            282 callsubr
            vlineto
            -46 callsubr
            return
          </CharString>
          <CharString index="164">
            72 callsubr
            -64 24 -34 79 -7 vhcurveto
            -95 -149 269 callgsubr
            74 9 22 34 62 vvcurveto
            92 vlineto
            73 -31 34 -109 vhcurveto
            -63 -91 callgsubr
            23 -82 callsubr
            return
          </CharString>
          <CharString index="165">
            hlineto
            -93 41 -34 120 vhcurveto
            86 253 callgsubr
          </CharString>
          <CharString index="166">
            hvcurveto
            -4 hlineto
            -4 27 -7 29 -6 27 -8 35 rcurveline
            -154 hlineto
            48 -63 38 -50 22 -30 41 -44 rlinecurve
            -5 hlineto
            -46 46 -36 33 -58 52 -63 56 rcurveline
            return
          </CharString>
          <CharString index="167">
            89 callsubr
            54 callsubr
            return
          </CharString>
          <CharString index="168">
            126 callsubr
            52 30 24 40 9 hvcurveto
            -64 return
          </CharString>
          <CharString index="169">
            vlineto
            44 callgsubr
            return
          </CharString>
          <CharString index="170">
            -113 60 -324 hlineto
            -104 callgsubr
            324 return
          </CharString>
          <CharString index="171">
            -678 66 callgsubr
          </CharString>
          <CharString index="172">
            51 callsubr
            170 499 return
          </CharString>
          <CharString index="173">
            242 callsubr
            -128 164 callgsubr
            return
          </CharString>
          <CharString index="174">
            vlineto
            -73 31 -44 165 callsubr
            44 73 hvcurveto
            return
          </CharString>
          <CharString index="175">
            -550 72 callgsubr
          </CharString>
          <CharString index="176">
            -314 hlineto
            -82 callgsubr
            return
          </CharString>
          <CharString index="177">
            -91 callgsubr
            24 -82 callsubr
            return
          </CharString>
          <CharString index="178">
            -3 225 362 237 callgsubr
            111 -53 callsubr
            37 -60 callsubr
            -133 vlineto
            -110 280 rmoveto
            3 callgsubr
            -147 -36 callgsubr
            110 -100 hlineto
            296 callgsubr
            44 -170 -67 -36 callgsubr
            125 49 callsubr
          </CharString>
          <CharString index="179">
            -113 257 82 callsubr
            return
          </CharString>
          <CharString index="180">
            rmoveto
            130 -150 rlineto
            166 hlineto
            -130 150 rlineto
            return
          </CharString>
          <CharString index="181">
            -3 294 205 callgsubr
            -37 -58 callgsubr
            118 62 vlineto
            17 8 -7 -15 hvcurveto
            -87 142 rmoveto
            110 48 callsubr
            -49 170 72 285 callgsubr
            -394 vlineto
            -75 40 -49 107 vhcurveto
            133 -21 callgsubr
            137 -21 callsubr
            endchar
          </CharString>
          <CharString index="182">
            -44 callsubr
            170 hlineto
            16 12 2 3 9 hvcurveto
            -56 7 35 -27 97 hhcurveto
            return
          </CharString>
          <CharString index="183">
            294 callsubr
            88 callgsubr
            -365 hlineto
            -73 31 -34 109 vhcurveto
            return
          </CharString>
          <CharString index="184">
            -33 vlineto
            127 callsubr
            33 -150 -26 -36 callgsubr
            return
          </CharString>
          <CharString index="185">
            127 callgsubr
            505 371 rmoveto
            -766 239 callsubr
            -72 -103 callgsubr
            244 80 -277 28 callsubr
          </CharString>
          <CharString index="186">
            108 callsubr
            -238 vlineto
            -78 29 -37 81 -9 vhcurveto
            -96 -150 38 callgsubr
            -95 151 rlineto
            71 12 26 37 74 vvcurveto
            199 callgsubr
          </CharString>
          <CharString index="187">
            196 callgsubr
            238 vlineto
            71 -35 27 -67 7 vhcurveto
            59 vlineto
            endchar
          </CharString>
          <CharString index="188">
            125 callgsubr
            -17 -58 callgsubr
            return
          </CharString>
          <CharString index="189">
            -57 -63 vlineto
            90 callsubr
            return
          </CharString>
          <CharString index="190">
            -154 hlineto
            26 -63 21 -50 12 -30 25 -44 rlinecurve
            -5 hlineto
            -30 46 -25 33 -40 52 -43 56 rcurveline
            return
          </CharString>
          <CharString index="191">
            60 113 -780 -113 550 -57 -101 vlineto
            -23 callsubr
            -238 vlineto
            0 callgsubr
            202 102 callgsubr
            return
          </CharString>
          <CharString index="192">
            -58 callgsubr
            348 -53 callsubr
            return
          </CharString>
          <CharString index="193">
            -100 callgsubr
            92 -82 callsubr
            45 hlineto
            return
          </CharString>
          <CharString index="194">
            -100 callgsubr
            125 136 callsubr
            return
          </CharString>
          <CharString index="195">
            vhcurveto
            17 -60 callsubr
            return
          </CharString>
          <CharString index="196">
            -83 54 -32 126 vhcurveto
            return
          </CharString>
          <CharString index="197">
            232 callgsubr
            150 callgsubr
            return
          </CharString>
          <CharString index="198">
            hlineto
            -93 41 -34 120 vhcurveto
            184 callgsubr
          </CharString>
          <CharString index="199">
            rmoveto
            -129 122 129 vlineto
            endchar
          </CharString>
          <CharString index="200">
            rmoveto
            166 callsubr
            -147 267 callsubr
            54 150 rmoveto
            -147 267 callsubr
            111 hlineto
            return
          </CharString>
          <CharString index="201">
            80 137 callgsubr
            return
          </CharString>
          <CharString index="202">
            -19 -69 callsubr
            return
          </CharString>
          <CharString index="203">
            21 callsubr
            306 hmoveto
            113 -611 197 callsubr
            113 113 -83 -27 callgsubr
          </CharString>
          <CharString index="204">
            -49 99 callsubr
          </CharString>
          <CharString index="205">
            rmoveto
            -97 150 rlineto
            -170 hlineto
            133 -150 rlineto
            return
          </CharString>
          <CharString index="206">
            -70 callgsubr
            endchar
          </CharString>
          <CharString index="207">
            64 -165 -54 146 callsubr
            -85 -97 callgsubr
            80 -86 callsubr
            277 return
          </CharString>
          <CharString index="208">
            -12 callgsubr
            118 hlineto
            42 26 7 17 21 hvcurveto
            -16 25 30 -8 63 hhcurveto
            return
          </CharString>
          <CharString index="209">
            -49 -75 hvcurveto
            -251 vlineto
            return
          </CharString>
          <CharString index="210">
            -170 -365 hlineto
            -98 callsubr
            return
          </CharString>
          <CharString index="211">
            rmoveto
            189 callgsubr
            return
          </CharString>
          <CharString index="212">
            hlineto
            60 callsubr
            return
          </CharString>
          <CharString index="213">
            rmoveto
            -104 callsubr
            return
          </CharString>
          <CharString index="214">
            -66 callsubr
            -50 153 callgsubr
            513 -170 -86 288 callgsubr
            130 -32 callsubr
            237 170 60 hlineto
            endchar
          </CharString>
          <CharString index="215">
            rmoveto
            94 callgsubr
            return
          </CharString>
          <CharString index="216">
            -98 242 callsubr
            return
          </CharString>
          <CharString index="217">
            vlineto
            23 callsubr
            return
          </CharString>
          <CharString index="218">
            rmoveto
            134 hlineto
            166 callsubr
            -170 hlineto
            return
          </CharString>
          <CharString index="219">
            520 215 rmoveto
            95 callsubr
            -29 hlineto
            -19 -4 9 15 hvcurveto
            120 -1 callsubr
            29 154 callgsubr
            -235 -120 rmoveto
            -15 -4 -9 -19 -75 callsubr
            120 -86 callsubr
            29 hlineto
            19 4 -9 -15 hvcurveto
            return
          </CharString>
          <CharString index="220">
            hlineto
            31 17 10 17 8 hvcurveto
            -19 26 159 callsubr
          </CharString>
          <CharString index="221">
            -49 callsubr
            181 -96 callgsubr
          </CharString>
          <CharString index="222">
            -47 -25 -17 -30 -4 hvcurveto
            -5 hlineto
            299 callsubr
            -116 261 callgsubr
            -140 vlineto
            -93 45 -9 callsubr
            116 hlineto
            47 25 17 30 4 hvcurveto
            5 hlineto
            -30 4 25 -17 47 hhcurveto
            115 hlineto
            86 45 34 93 251 callsubr
            return
          </CharString>
          <CharString index="223">
            363 rmoveto
            -70 hlineto
            -74 callsubr
            70 hlineto
            -234 250 callsubr
            return
          </CharString>
          <CharString index="224">
            -106 callgsubr
            -75 211 callgsubr
            240 113 -187 -91 callgsubr
            33 -82 callsubr
            return
          </CharString>
          <CharString index="225">
            -17 callsubr
            -276 145 callgsubr
            84 -87 vlineto
            return
          </CharString>
          <CharString index="226">
            34 -12 -29 20 -47 293 callgsubr
            -251 61 callsubr
            167 return
          </CharString>
          <CharString index="227">
            94 callsubr
            endchar
          </CharString>
          <CharString index="228">
            -109 -31 -44 -73 hvcurveto
            return
          </CharString>
          <CharString index="229">
            30 6 6 30 vhcurveto
            40 113 -66 hlineto
            -81 -39 -38 -60 -32 3 -34 6 -50 hvcurveto
            -4 hlineto
            -9 30 -17 31 -20 30 -32 47 rcurveline
            return
          </CharString>
          <CharString index="230">
            10 callsubr
            endchar
          </CharString>
          <CharString index="231">
            hlineto
            27 16 5 11 10 hvcurveto
            -94 170 return
          </CharString>
          <CharString index="232">
            642 rmoveto
            -580 -113 580 hlineto
            -350 -57 rmoveto
            -170 -267 262 callsubr
            112 113 -282 -257 -25 callsubr
            endchar
          </CharString>
          <CharString index="233">
            171 callsubr
            18 hlineto
            return
          </CharString>
          <CharString index="234">
            -15 -8 -7 71 callgsubr
            return
          </CharString>
          <CharString index="235">
            -114 18 callgsubr
          </CharString>
          <CharString index="236">
            -57 -39 -23 -65 hvcurveto
            -20 -5 vlineto
            299 callsubr
            -358 68 callgsubr
            231 119 callgsubr
            113 -60 return
          </CharString>
          <CharString index="237">
            -78 callgsubr
            -230 -117 rmoveto
            -15 -69 callsubr
            -125 -167 hlineto
            -50 callgsubr
            return
          </CharString>
          <CharString index="238">
            -57 -39 -23 -65 hvcurveto
            -20 -5 vlineto
            299 callsubr
            -165 182 callgsubr
            return
          </CharString>
          <CharString index="239">
            rmoveto
            307 callgsubr
            -152 hlineto
            240 -130 rmoveto
            307 callgsubr
            -152 hlineto
            return
          </CharString>
          <CharString index="240">
            rmoveto
            -253 52 vlineto
            115 166 rlineto
            87 vlineto
            endchar
          </CharString>
          <CharString index="241">
            rmoveto
            -101 callgsubr
            16 -73 callgsubr
            -110 -79 callgsubr
            -16 -91 callgsubr
            return
          </CharString>
          <CharString index="242">
            214 callgsubr
            225 callgsubr
            return
          </CharString>
          <CharString index="243">
            -32 callsubr
            18 23 callgsubr
            return
          </CharString>
          <CharString index="244">
            hlineto
            140 callgsubr
            return
          </CharString>
          <CharString index="245">
            rmoveto
            -178 hlineto
            -78 -271 -84 271 rlineto
            -179 hlineto
            177 -434 rlineto
            -208 175 210 vlineto
            endchar
          </CharString>
          <CharString index="246">
            -96 callsubr
            hlineto
            endchar
          </CharString>
          <CharString index="247">
            -166 rmoveto
            -74 callsubr
            81 -166 hlineto
            -245 34 289 callgsubr
            -202 hlineto
            196 callsubr
            274 205 callsubr
            return
          </CharString>
          <CharString index="248">
            rmoveto
            -84 callsubr
            -85 -97 callgsubr
            80 -86 callsubr
            89 154 callgsubr
            return
          </CharString>
          <CharString index="249">
            126 callgsubr
            -41 51 rlineto
            72 103 return
          </CharString>
          <CharString index="250" raw="1">
            fb3efc01 06331d0b  
          </CharString>
          <CharString index="251">
            vlineto
            27 callgsubr
            return
          </CharString>
          <CharString index="252">
            -231 hlineto
            1 -113 rlineto
            return
          </CharString>
          <CharString index="253">
            vlineto
            -84 callsubr
            return
          </CharString>
          <CharString index="254">
            hlineto
            229 callgsubr
          </CharString>
          <CharString index="255">
            -106 callgsubr
            -238 -103 callgsubr
            -43 callgsubr
            return
          </CharString>
          <CharString index="256">
            -48 callsubr
            120 -86 callsubr
            23 113 return
          </CharString>
          <CharString index="257">
            218 vlineto
            81 -31 36 -88 8 vhcurveto
            59 vlineto
            endchar
          </CharString>
          <CharString index="258">
            -19 6 -33 -44 callsubr
            170 hlineto
            36 23 10 18 13 267 callgsubr
            59 hhcurveto
            return
          </CharString>
          <CharString index="259">
            642 108 callsubr
            return
          </CharString>
          <CharString index="260">
            166 callgsubr
            -100 vlineto
            return
          </CharString>
          <CharString index="261">
            vlineto
            -74 41 -32 89 vhcurveto
            return
          </CharString>
          <CharString index="262">
            rmoveto
            -80 callsubr
            -476 231 callgsubr
            84 vlineto
            15 8 5 15 vhcurveto
            45 hlineto
            return
          </CharString>
          <CharString index="263">
            -14 callgsubr
            294 return
          </CharString>
          <CharString index="264">
            -107 callgsubr
            257 return
          </CharString>
          <CharString index="265">
            hlineto
            -120 -41 -34 -93 hvcurveto
            return
          </CharString>
          <CharString index="266">
            40 -8 58 49 callgsubr
          </CharString>
          <CharString index="267">
            rmoveto
            -422 -125 123 -517 175 517 124 hlineto
            endchar
          </CharString>
          <CharString index="268">
            176 callsubr
            6 113 return
          </CharString>
          <CharString index="269">
            rmoveto
            145 callsubr
            222 callgsubr
            -164 -107 callsubr
            return
          </CharString>
          <CharString index="270">
            rmoveto
            269 callsubr
            return
          </CharString>
          <CharString index="271">
            210 hmoveto
            499 -170 -499 vlineto
            return
          </CharString>
          <CharString index="272">
            109 vhcurveto
            237 callsubr
            return
          </CharString>
          <CharString index="273">
            133 150 rlineto
            return
          </CharString>
          <CharString index="274">
            67 hlineto
            80 31 31 69 hvcurveto
            65 -155 -25 vlineto
            -23 -5 -9 -23 vhcurveto
            -36 -28 57 -88 hhcurveto
            -67 hlineto
            -80 -31 -31 -69 hvcurveto
            -65 155 25 vlineto
            23 5 9 23 vhcurveto
            49 31 -57 72 hhcurveto
            return
          </CharString>
          <CharString index="275">
            -100 174 callgsubr
            return
          </CharString>
          <CharString index="276">
            -21 callgsubr
            518 return
          </CharString>
          <CharString index="277">
            rmoveto
            -602 -113 372 -57 -172 hlineto
            -106 callgsubr
            -186 -66 callsubr
            -87 211 callgsubr
            return
          </CharString>
          <CharString index="278">
            vlineto
            -75 38 -49 95 vhcurveto
            return
          </CharString>
          <CharString index="279">
            hlineto
            -89 -41 -32 -74 hvcurveto
            -60 -66 callsubr
            -60 154 callsubr
            293 113 -260 -107 callsubr
            return
          </CharString>
          <CharString index="280">
            vlineto
            -93 41 -34 120 vhcurveto
            114 callgsubr
          </CharString>
          <CharString index="281">
            -113 60 193 callgsubr
            return
          </CharString>
          <CharString index="282">
            rmoveto
            157 hlineto
            53 69 53 -69 295 callgsubr
            -133 150 rlineto
            -154 hlineto
            endchar
          </CharString>
          <CharString index="283">
            vlineto
            185 callsubr
            return
          </CharString>
          <CharString index="284">
            hlineto
            -28 callgsubr
            return
          </CharString>
          <CharString index="285">
            -34 callgsubr
            -104 154 callsubr
            return
          </CharString>
          <CharString index="286">
            -227 hlineto
            -107 callgsubr
            return
          </CharString>
          <CharString index="287">
            40 -8 58 250 callgsubr
            return
          </CharString>
          <CharString index="288">
            hlineto
            -67 -38 -13 -27 -19 hvcurveto
            -90 97 return
          </CharString>
          <CharString index="289">
            215 callsubr
            -223 vlineto
            -49 callsubr
            return
          </CharString>
          <CharString index="290">
            -82 callsubr
            99 274 callsubr
            -93 -91 callgsubr
            18 -82 callsubr
            endchar
          </CharString>
          <CharString index="291">
            -86 287 702 rmoveto
            -307 -762 rlineto
            144 hlineto
            307 762 rlineto
            endchar
          </CharString>
          <CharString index="292">
            -50 callgsubr
            -23 -107 callsubr
            120 -86 callsubr
            return
          </CharString>
          <CharString index="293">
            -68 callsubr
            478 323 rmoveto
            return
          </CharString>
          <CharString index="294">
            -109 -31 -34 -73 hvcurveto
            -160 18 callsubr
          </CharString>
          <CharString index="295">
            -4 -7 -2 -8 -10 vvcurveto
            return
          </CharString>
          <CharString index="296">
            225 rmoveto
            -50 callgsubr
            -149 -97 callgsubr
            64 0 callsubr
            82 hlineto
            return
          </CharString>
          <CharString index="297">
            -77 callgsubr
            23 113 -272 -113 73 hlineto
            -11 -12 -6 -18 -24 vvcurveto
            -100 188 callgsubr
            return
          </CharString>
          <CharString index="298">
            vlineto
            -98 callgsubr
            return
          </CharString>
          <CharString index="299">
            909 rmoveto
            -125 hlineto
            -106 callgsubr
            -170 170 154 -82 callsubr
            72 hlineto
            -59 -31 232 callsubr
          </CharString>
          <CharString index="300">
            196 634 -196 hlineto
            236 -185 rmoveto
            196 185 -196 hlineto
            return
          </CharString>
          <CharString index="301">
            472 163 callsubr
            return
          </CharString>
          <CharString index="302">
            -60 -113 60 -45 callsubr
            return
          </CharString>
          <CharString index="303">
            -49 callgsubr
            103 return
          </CharString>
          <CharString index="304">
            87 callgsubr
            214 callsubr
            return
          </CharString>
          <CharString index="305">
            225 209 callgsubr
            27 return
          </CharString>
          <CharString index="306">
            rmoveto
            -166 hlineto
            130 -150 rlineto
            166 hlineto
            endchar
          </CharString>
          <CharString index="307">
            277 callgsubr
            114 vlineto
            158 callgsubr
            -24 callgsubr
            return
          </CharString>
          <CharString index="308">
            hlineto
            -141 201 rlineto
            -203 hlineto
            58 -75 39 -50 36 -40 45 -36 rlinecurve
            return
          </CharString>
          <CharString index="309">
            -97 89 callgsubr
            return
          </CharString>
          <CharString index="310">
            0 vhcurveto
            0 -45 53 -34 43 vhcurveto
            return
          </CharString>
          <CharString index="311">
            264 205 callsubr
            return
          </CharString>
          <CharString index="312">
            vlineto
            -61 callsubr
            return
          </CharString>
          <CharString index="313">
            -150 304 callsubr
            -42 -107 callsubr
            120 15 callsubr
          </CharString>
          <CharString index="314">
            rmoveto
            -176 hlineto
            -94 -227 rlineto
            397 -170 -669 170 233 vlineto
            93 -233 rlineto
            177 hlineto
            -107 253 rlineto
            endchar
          </CharString>
          <CharString index="315">
            309 callgsubr
            60 113 94 callgsubr
            -160 vlineto
            return
          </CharString>
          <CharString index="316">
            -245 40 164 rmoveto
            -313 52 vlineto
            120 223 rlineto
            90 vlineto
            return
          </CharString>
          <CharString index="317">
            rmoveto
            -389 -106 389 hlineto
            return
          </CharString>
          <CharString index="318">
            -33 216 callgsubr
          </CharString>
          <CharString index="319">
            458 642 rmoveto
            -478 -113 478 hlineto
            return
          </CharString>
          <CharString index="320">
            -170 -64 vlineto
            return
          </CharString>
          <CharString index="321">
            188 callgsubr
            93 157 rlineto
            -97 170 335 -86 callsubr
            return
          </CharString>
          <CharString index="322">
            252 callgsubr
            242 callsubr
            -47 -66 callsubr
            return
          </CharString>
          <CharString index="323">
            -33 rmoveto
            299 callgsubr
            288 hlineto
            44 22 24 41 vhcurveto
            57 148 -15 hlineto
            -59 -38 -32 -50 -11 hvcurveto
            endchar
          </CharString>
          <CharString index="324">
            vlineto
            -73 31 -34 165 callsubr
            34 73 hvcurveto
            return
          </CharString>
          <CharString index="325">
            -204 hlineto
            -89 6 -14 -45 callgsubr
            return
          </CharString>
          <CharString index="326">
            rmoveto
            -59 -38 -32 -50 -11 hvcurveto
            77 299 callgsubr
            288 vlineto
            44 22 24 41 vhcurveto
            57 148 hlineto
            endchar
          </CharString>
          <CharString index="327">
            -75 417 642 rmoveto
            -407 -135 220 hlineto
            -189 -507 rlineto
            181 hlineto
            195 547 rlineto
            endchar
          </CharString>
          <CharString index="328">
            vlineto
            127 223 rlineto
            90 vlineto
            return
          </CharString>
          <CharString index="329">
            -88 callgsubr
            152 -85 callsubr
            return
          </CharString>
          <CharString index="330">
            -5 callsubr
            -230 return
          </CharString>
          <CharString index="331">
            -107 vhcurveto
            -61 -58 callgsubr
            return
          </CharString>
          <CharString index="332">
            168 hlineto
            23 16 6 10 10 hvcurveto
            return
          </CharString>
          <CharString index="333">
            vlineto
            -2 callgsubr
            return
          </CharString>
          <CharString index="334">
            -21 -11 -5 -17 vhcurveto
            -86 hlineto
            -17 -11 5 21 hvcurveto
            64 vlineto
            21 11 5 17 vhcurveto
            86 hlineto
            17 11 -5 -21 hvcurveto
            return
          </CharString>
          <CharString index="335">
            264 callgsubr
            94 -82 callsubr
            45 hlineto
            return
          </CharString>
          <CharString index="336">
            26 callgsubr
            17 5 11 9 hvcurveto
            -64 4 34 -30 102 hhcurveto
            return
          </CharString>
          <CharString index="337">
            126 callsubr
            47 29 20 34 12 hvcurveto
            return
          </CharString>
          <CharString index="338">
            -78 callsubr
            hlineto
            return
          </CharString>
          <CharString index="339">
            rmoveto
            -106 101 106 vlineto
            endchar
          </CharString>
          <CharString index="340">
            rlineto
            83 callsubr
            return
          </CharString>
          <CharString index="341">
            -17 callsubr
            230 113 rmoveto
            return
          </CharString>
          <CharString index="342">
            rmoveto
            -170 hlineto
            133 206 callgsubr
            hlineto
            endchar
          </CharString>
          <CharString index="343">
            -113 64 279 callgsubr
            return
          </CharString>
          <CharString index="344">
            122 hlineto
            109 31 return
          </CharString>
          <CharString index="345">
            -130 -231 rlineto
            195 hlineto
            102 181 rlineto
            20 -181 139 callsubr
          </CharString>
          <CharString index="346">
            282 callgsubr
            hlineto
            82 callgsubr
            return
          </CharString>
          <CharString index="347">
            -72 vlineto
            -69 callgsubr
            return
          </CharString>
          <CharString index="348">
            -1 callsubr
            52 return
          </CharString>
          <CharString index="349">
            vlineto
            -106 callgsubr
            return
          </CharString>
          <CharString index="350">
            rmoveto
            -84 callsubr
            -36 -97 callgsubr
            24 241 callgsubr
            return
          </CharString>
          <CharString index="351">
            472 rmoveto
            254 callgsubr
            return
          </CharString>
          <CharString index="352">
            hlineto
            153 callsubr
            -93 45 -9 callsubr
            76 hlineto
            19 15 4 6 13 hvcurveto
            return
          </CharString>
          <CharString index="353">
            -8 5 15 hvcurveto
            return
          </CharString>
          <CharString index="354">
            282 callgsubr
            vlineto
            82 callgsubr
            240 callsubr
            return
          </CharString>
          <CharString index="355">
            -17 -6 vlineto
            258 callgsubr
          </CharString>
          <CharString index="356">
            466 642 rmoveto
            -486 -113 486 hlineto
            return
          </CharString>
          <CharString index="357">
            -132 rmoveto
            -56 callgsubr
            return
          </CharString>
          <CharString index="358">
            hvcurveto
            140 vlineto
            93 -45 34 -86 vhcurveto
            return
          </CharString>
          <CharString index="359">
            -57 254 callgsubr
            return
          </CharString>
          <CharString index="360">
            -96 -158 rlineto
            272 callsubr
          </CharString>
          <CharString index="361">
            rmoveto
            159 hlineto
            -107 153 107 151 rlineto
            -159 hlineto
            -110 -151 rlineto
            return
          </CharString>
          <CharString index="362">
            -243 40 642 rmoveto
            -313 47 312 callgsubr
          </CharString>
          <CharString index="363">
            -58 callgsubr
            33 return
          </CharString>
          <CharString index="364">
            455 hmoveto
            113 return
          </CharString>
          <CharString index="365">
            -294 vlineto
            95 callsubr
            return
          </CharString>
          <CharString index="366">
            -92 callsubr
            244 return
          </CharString>
          <CharString index="367">
            369 281 callgsubr
            return
          </CharString>
          <CharString index="368">
            rlineto
            -157 hlineto
            return
          </CharString>
          <CharString index="369">
            hlineto
            -104 callgsubr
            154 return
          </CharString>
          <CharString index="370">
            732 215 -100 callgsubr
            return
          </CharString>
          <CharString index="371">
            125 314 rlineto
            -188 hlineto
            -119 -314 120 -328 rlineto
            return
          </CharString>
          <CharString index="372">
            vlineto
            -81 41 -26 74 vhcurveto
            77 hlineto
            27 16 5 11 10 hvcurveto
            -107 120 return
          </CharString>
          <CharString index="373">
            -113 492 hlineto
            -61 callsubr
            return
          </CharString>
          <CharString index="374">
            hlineto
            -97 -150 rlineto
            return
          </CharString>
          <CharString index="375">
            hlineto
            -6 callgsubr
            return
          </CharString>
          <CharString index="376">
            -96 hlineto
            -72 callsubr
            return
          </CharString>
          <CharString index="377">
            rmoveto
            84 callgsubr
            613 return
          </CharString>
          <CharString index="378">
            353 -2 rmoveto
            -106 111 rlineto
            67 hlineto
            17 11 1 3 11 hvcurveto
            return
          </CharString>
          <CharString index="379">
            179 hlineto
            93 157 rlineto
            -97 -95 callsubr
          </CharString>
          <CharString index="380">
            -144 -100 callgsubr
            return
          </CharString>
          <CharString index="381">
            -85 callsubr
            55 vlineto
            73 -31 34 -109 vhcurveto
            return
          </CharString>
          <CharString index="382">
            843 rmoveto
            152 -98 71 -46 40 -25 70 -35 rlinecurve
            172 return
          </CharString>
          <CharString index="383">
            303 callgsubr
            87 vlineto
            10 -2 8 -4 7 vhcurveto
            return
          </CharString>
          <CharString index="384">
            -154 20 245 rmoveto
            303 115 -303 hlineto
            endchar
          </CharString>
          <CharString index="385">
            -57 109 callsubr
            return
          </CharString>
          <CharString index="386">
            669 -170 -669 vlineto
            return
          </CharString>
          <CharString index="387">
            483 1000 642 rmoveto
            return
          </CharString>
          <CharString index="388">
            rmoveto
            170 89 113 return
          </CharString>
          <CharString index="389">
            -113 264 -57 -74 return
          </CharString>
          <CharString index="390">
            rmoveto
            268 callgsubr
            return
          </CharString>
          <CharString index="391">
            -36 callgsubr
            134 -21 callgsubr
            return
          </CharString>
          <CharString index="392" raw="1">
            270af702 d5fb0207 2e0b 
          </CharString>
          <CharString index="393">
            rmoveto
            389 106 -389 hlineto
            endchar
          </CharString>
          <CharString index="394">
            hlineto
            81 callgsubr
            return
          </CharString>
          <CharString index="395">
            -53 callsubr
            36 -60 callsubr
            return
          </CharString>
          <CharString index="396">
            hlineto
            -106 callgsubr
            -2 return
          </CharString>
          <CharString index="397">
            rmoveto
            483 125 -483 hlineto
            return
          </CharString>
          <CharString index="398">
            137 -7 callgsubr
            return
          </CharString>
          <CharString index="399">
            vlineto
            -108 -3 -37 -35 -89 vvcurveto
            return
          </CharString>
          <CharString index="400" raw="1">
            361de207 0b  
          </CharString>
          <CharString index="401">
            -113 249 return
          </CharString>
          <CharString index="402">
            -2 515 642 rmoveto
            -535 -113 305 return
          </CharString>
          <CharString index="403">
            67 -60 callsubr
            -267 137 rmoveto
            return
          </CharString>
          <CharString index="404" raw="1">
            f73b1dfb ce0b  
          </CharString>
          <CharString index="405">
            rmoveto
            -90 callsubr
            return
          </CharString>
          <CharString index="406">
            30 -4 -25 17 -47 hhcurveto
            return
          </CharString>
          <CharString index="407">
            -101 callsubr
            122 78 return
          </CharString>
          <CharString index="408">
            283 rmoveto
            -1001 -113 return
          </CharString>
          <CharString index="409">
            vlineto
            88 -37 35 -106 4 vhcurveto
            return
          </CharString>
          <CharString index="410">
            vlineto
            4 7 2 8 10 vvcurveto
            return
          </CharString>
          <CharString index="411">
            -76 vlineto
            95 callsubr
            return
          </CharString>
          <CharString index="412">
            7 -1 7 vhcurveto
            return
          </CharString>
          <CharString index="413">
            -113 288 return
          </CharString>
          <CharString index="414">
            113 hlineto
            endchar
          </CharString>
          <CharString index="415">
            rlineto
            179 hlineto
            122 306 callgsubr
            return
          </CharString>
          <CharString index="416">
            -213 40 vlineto
            76 136 rlineto
            77 vlineto
            return
          </CharString>
          <CharString index="417">
            25 26 -18 19 -26 -25 -19 -19 -26 vhcurveto
            return
          </CharString>
          <CharString index="418">
            -82 callsubr
            45 hlineto
            -482 return
          </CharString>
          <CharString index="419">
            rmoveto
            176 120 -176 hlineto
            endchar
          </CharString>
        <CharString name=".notdef">
          259 160 hmoveto
          436 701 -436 hlineto
          81 -76 rmoveto
          275 -549 -275 hlineto
          endchar
        </CharString>
        <CharString name="A">
          46 220 220 -30 callgsubr
        </CharString>
        <CharString name="AE">
          273 259 235 rmoveto
          110 296 rlineto
          -296 vlineto
          165 -110 rmoveto
          136 181 125 -181 131 210 125 -489 vlineto
          -255 -642 rlineto
          172 hlineto
          43 115 rlineto
          154 -115 384 125 hlineto
          endchar
        </CharString>
        <CharString name="Aacute">
          46 474 825 26 callsubr
          -121 -455 -30 callgsubr
        </CharString>
        <CharString name="Abreve">
          46 321 675 rmoveto
          107 40 49 75 hvcurveto
          26 -150 77 callsubr
          -1 -455 -30 callgsubr
        </CharString>
        <CharString name="Acircumflex">
          46 271 744 24 callgsubr
          2 -455 -30 callgsubr
        </CharString>
        <CharString name="Adieresis">
          46 467 805 41 callgsubr
          -7 -455 -30 callgsubr
        </CharString>
        <CharString name="Agrave">
          46 331 675 98 callsubr
          23 -455 -30 callgsubr
        </CharString>
        <CharString name="Amacron">
          46 466 781 210 callsubr
          -246 -455 -30 callgsubr
        </CharString>
        <CharString name="Aogonek">
          46 220 220 rmoveto
          51 231 49 -231 rlineto
          152 -397 rmoveto
          84 callgsubr
          129 -6 hlineto
          -161 627 rlineto
          -213 hlineto
          -165 -642 rlineto
          172 hlineto
          21 96 rlineto
          154 hlineto
          20 -96 rlineto
          87 -17 -6 hlineto
          258 callgsubr
        </CharString>
        <CharString name="Aring">
          46 233 778 11 callsubr
          -9 -454 -30 callgsubr
        </CharString>
        <CharString name="Atilde">
          46 198 706 rmoveto
          165 callgsubr
          1 callsubr
          vlineto
          22 -455 -30 callgsubr
        </CharString>
        <CharString name="B">
          19 40 642 rmoveto
          -642 294 vlineto
          107 40 49 75 hvcurveto
          96 vlineto
          51 -9 35 -39 17 vhcurveto
          39 21 9 40 52 vvcurveto
          82 -21 callsubr
          -25 -505 -7 callgsubr
          -72 149 72 -60 callsubr
          159 vmoveto
          -31 callgsubr
          -72 148 72 -60 callsubr
          endchar
        </CharString>
        <CharString name="C">
          -2 470 402 -7 callsubr
        </CharString>
        <CharString name="CR">
          -297 endchar
        </CharString>
        <CharString name="Cacute">
          -2 450 825 26 callsubr
          153 -273 -7 callsubr
        </CharString>
        <CharString name="Ccaron">
          -2 327 675 -11 callsubr
          297 -273 -7 callsubr
        </CharString>
        <CharString name="Ccedilla">
          -2 170 -123 -7 callgsubr
          -53 -115 91 -21 callgsubr
          90 -160 vlineto
          300 448 -7 callsubr
        </CharString>
        <CharString name="D">
          32 317 137 173 callgsubr
        </CharString>
        <CharString name="Dcaron">
          32 337 675 -11 callsubr
          134 -538 173 callgsubr
        </CharString>
        <CharString name="Dcroat">
          40 317 205 callgsubr
          -67 144 55 115 -55 133 67 -60 callsubr
          -267 147 rmoveto
          -258 -55 -115 55 -269 295 vlineto
          107 40 49 75 hvcurveto
          394 -21 callsubr
          endchar
        </CharString>
        <CharString name="E">
          -48 215 125 rmoveto
          136 41 callsubr
          vlineto
          endchar
        </CharString>
        <CharString name="Eacute">
          -48 432 825 26 callsubr
          -84 -550 rmoveto
          136 41 callsubr
          vlineto
          endchar
        </CharString>
        <CharString name="Ecaron">
          -48 316 675 -11 callsubr
          53 -414 rmoveto
          41 callsubr
          -219 hlineto
          endchar
        </CharString>
        <CharString name="Ecircumflex">
          -48 236 744 24 callgsubr
          32 -414 rmoveto
          41 callsubr
          -219 hlineto
          endchar
        </CharString>
        <CharString name="Edieresis">
          3 430 805 41 callgsubr
          25 -550 rmoveto
          136 41 callsubr
          vlineto
          endchar
        </CharString>
        <CharString name="Edotaccent">
          -48 320 805 259 callgsubr
          -105 -550 rmoveto
          136 41 callsubr
          vlineto
          endchar
        </CharString>
        <CharString name="Egrave">
          -48 302 675 98 callsubr
          47 -550 rmoveto
          136 41 callsubr
          vlineto
          endchar
        </CharString>
        <CharString name="Emacron">
          -48 425 781 210 callsubr
          -210 -550 rmoveto
          136 41 callsubr
          vlineto
          endchar
        </CharString>
        <CharString name="Eogonek">
          -48 362 -177 rmoveto
          84 callgsubr
          129 -1 110 -219 136 181 125 -181 131 210 125 -385 -642 304 -17 -6 hlineto
          258 callgsubr
        </CharString>
        <CharString name="Eth">
          30 317 291 callsubr
          -67 154 55 115 -55 143 296 callsubr
          -258 -55 -115 55 -269 295 vlineto
          107 40 49 75 hvcurveto
          394 -21 callsubr
          endchar
        </CharString>
        <CharString name="Euro">
          19 491 402 rmoveto
          116 -21 callsubr
          -141 106 callgsubr
          -85 -41 -96 41 -32 -41 -96 41 -85 -36 callgsubr
          141 -21 callgsubr
          112 -175 -99 107 callgsubr
          -35 -58 callgsubr
          72 59 96 -59 32 59 96 -59 72 -53 callsubr
          35 -60 callsubr
          -103 vlineto
          endchar
        </CharString>
        <CharString name="F">
          -57 425 517 rmoveto
          125 -385 268 callgsubr
          246 182 115 -182 156 vlineto
          endchar
        </CharString>
        <CharString name="G">
          4 471 422 30 callsubr
        </CharString>
        <CharString name="Gbreve">
          4 303 675 rmoveto
          107 40 49 75 hvcurveto
          26 -150 77 callsubr
          268 -253 30 callsubr
        </CharString>
        <CharString name="H">
          53 338 642 rmoveto
          -263 -126 263 -172 -642 172 254 126 -254 172 642 vlineto
          endchar
        </CharString>
        <CharString name="I">
          135 callgsubr
          endchar
        </CharString>
        <CharString name="Iacute">
          135 callgsubr
          -159 33 111 callsubr
          endchar
        </CharString>
        <CharString name="Icircumflex">
          135 callgsubr
          -298 33 175 callsubr
        </CharString>
        <CharString name="Idieresis">
          -242 -68 675 132 callsubr
          -132 -163 283 callsubr
          642 vlineto
          endchar
        </CharString>
        <CharString name="Idotaccent">
          135 callgsubr
          -168 33 313 callgsubr
        </CharString>
        <CharString name="Igrave">
          135 callgsubr
          -118 183 235 callsubr
        </CharString>
        <CharString name="Imacron">
          135 callgsubr
          -281 33 286 callsubr
        </CharString>
        <CharString name="Iogonek">
          -242 142 -177 rmoveto
          84 callgsubr
          756 -175 -642 84 -17 -6 hlineto
          258 callgsubr
        </CharString>
        <CharString name="J">
          -40 10 257 rmoveto
          -133 -36 callgsubr
          117 169 callsubr
          -175 -495 107 callgsubr
          -11 -58 callgsubr
          110 vlineto
          endchar
        </CharString>
        <CharString name="K">
          33 40 hmoveto
          175 642 -175 hlineto
          358 -314 rmoveto
          264 callsubr
          188 hlineto
          endchar
        </CharString>
        <CharString name="L">
          -83 215 125 200 callgsubr
        </CharString>
        <CharString name="Lacute">
          -83 332 825 26 callsubr
          16 -550 200 callgsubr
        </CharString>
        <CharString name="Lcaron">
          -83 204 675 -11 callsubr
          165 -550 200 callgsubr
        </CharString>
        <CharString name="Lslash">
          -63 225 125 rmoveto
          196 vlineto
          110 53 rlineto
          115 vlineto
          -110 -53 rlineto
          206 -175 -290 vlineto
          -89 -43 rlineto
          -115 vlineto
          89 43 rlineto
          -237 374 125 vlineto
          endchar
        </CharString>
        <CharString name="M">
          173 395 139 rmoveto
          80 269 rlineto
          -408 155 642 -191 vlineto
          -104 -343 -104 343 rlineto
          -191 -642 156 406 hlineto
          79 -267 rlineto
          endchar
        </CharString>
        <CharString name="N">
          117 callgsubr
          endchar
        </CharString>
        <CharString name="NULL">
          -497 endchar
        </CharString>
        <CharString name="Nacute">
          36 188 675 111 callsubr
          48 -183 212 callgsubr
        </CharString>
        <CharString name="Ncaron">
          36 187 674 132 callgsubr
          279 -182 212 callgsubr
        </CharString>
        <CharString name="Ntilde">
          117 callgsubr
          -146 33 rmoveto
          1 callsubr
          31 vlineto
          165 callgsubr
          endchar
        </CharString>
        <CharString name="O">
          19 304 147 -58 callsubr
        </CharString>
        <CharString name="OE">
          243 332 291 callsubr
          -42 85 callgsubr
          42 -60 callsubr
          155 -390 rmoveto
          151 181 115 -181 146 210 115 -335 -20 vlineto
          13 -18 -23 7 -31 hhcurveto
          -78 hlineto
          -10 callgsubr
          78 hlineto
          31 23 7 13 18 hvcurveto
          -20 344 115 vlineto
          endchar
        </CharString>
        <CharString name="Oacute">
          19 462 825 26 callsubr
          -25 -528 -58 callsubr
        </CharString>
        <CharString name="Ocircumflex">
          19 256 744 24 callgsubr
          101 -528 -58 callsubr
        </CharString>
        <CharString name="Odieresis">
          3 454 805 41 callgsubr
          90 -528 -58 callsubr
        </CharString>
        <CharString name="Ograve">
          19 322 675 98 callsubr
          116 -528 -58 callsubr
        </CharString>
        <CharString name="Ohungarumlaut">
          3 410 674 93 callsubr
          84 -527 -58 callsubr
        </CharString>
        <CharString name="Omacron">
          19 452 781 210 callsubr
          -148 -528 -58 callsubr
        </CharString>
        <CharString name="Oslash">
          19 314 291 callsubr
          -62 -58 callgsubr
          15 vlineto
          112 197 rlineto
          -112 156 rmoveto
          15 8 7 17 vhcurveto
          62 -60 callsubr
          -26 vlineto
          -112 -197 rlineto
          290 380 rmoveto
          -74 hlineto
          -17 -29 rlineto
          6 -19 -23 3 -27 hhcurveto
          -148 106 callgsubr
          -394 vlineto
          -34 8 -29 19 -21 vhcurveto
          -34 -60 rlineto
          74 hlineto
          16 28 rlineto
          -5 18 21 -3 25 hhcurveto
          148 -21 callgsubr
          394 vlineto
          32 -7 27 -17 21 vhcurveto
          endchar
        </CharString>
        <CharString name="Otilde">
          19 194 706 rmoveto
          165 callgsubr
          1 callsubr
          vlineto
          110 -528 -58 callsubr
        </CharString>
        <CharString name="P">
          7 309 357 -7 callgsubr
          -69 182 69 -60 callsubr
          -269 147 283 callsubr
          210 122 vlineto
          107 40 49 75 hvcurveto
          184 -21 callsubr
          endchar
        </CharString>
        <CharString name="Q">
          19 212 495 rmoveto
          15 8 7 17 vhcurveto
          42 -60 callsubr
          -348 107 callgsubr
          -42 -58 callgsubr
          323 -215 rmoveto
          -93 99 rlineto
          26 22 11 32 39 vvcurveto
          394 -21 callsubr
          -148 hlineto
          -10 callgsubr
          89 hlineto
          63 -68 rlineto
          endchar
        </CharString>
        <CharString name="R">
          17 284 517 53 callsubr
        </CharString>
        <CharString name="Racute">
          17 443 824 26 callsubr
          -26 -157 53 callsubr
        </CharString>
        <CharString name="Rcaron">
          17 331 674 -11 callsubr
          107 -157 53 callsubr
        </CharString>
        <CharString name="S">
          -6 286 147 66 callgsubr
        </CharString>
        <CharString name="Sacute">
          -6 193 675 111 callsubr
          -4 64 callsubr
        </CharString>
        <CharString name="Scaron">
          -6 168 675 132 callgsubr
          251 64 callsubr
        </CharString>
        <CharString name="T">
          -65 427 642 160 callsubr
        </CharString>
        <CharString name="Tcaron">
          -65 290 675 -11 callsubr
          291 -33 160 callsubr
        </CharString>
        <CharString name="Thorn">
          37 304 257 -7 callgsubr
          -59 171 59 -60 callsubr
          -84 142 rmoveto
          116 -175 268 callgsubr
          115 112 vlineto
          107 40 49 75 hvcurveto
          163 -21 callsubr
          endchar
        </CharString>
        <CharString name="U">
          25 307 642 -13 callgsubr
        </CharString>
        <CharString name="Uacute">
          25 453 825 26 callsubr
          -13 -33 -13 callgsubr
        </CharString>
        <CharString name="Ucircumflex">
          25 261 744 24 callgsubr
          99 -33 -13 callgsubr
        </CharString>
        <CharString name="Udieresis">
          25 456 805 41 callgsubr
          91 -33 -13 callgsubr
        </CharString>
        <CharString name="Ugrave">
          25 326 675 98 callsubr
          115 -33 -13 callgsubr
        </CharString>
        <CharString name="Uhungarumlaut">
          3 402 675 93 callsubr
          95 -528 -7 callgsubr
          -42 -58 callgsubr
          495 -175 -518 -36 callgsubr
          148 169 callsubr
          -175 vlineto
          endchar
        </CharString>
        <CharString name="Umacron">
          25 456 781 210 callsubr
          -149 -33 -13 callgsubr
        </CharString>
        <CharString name="Uogonek">
          25 307 642 rmoveto
          -495 107 callgsubr
          -42 -58 callgsubr
          495 -175 -518 -36 callgsubr
          39 -17 -6 hlineto
          62 callgsubr
          -91 hlineto
          84 callgsubr
          114 18 169 callsubr
          vlineto
          endchar
        </CharString>
        <CharString name="Uring">
          25 222 778 11 callsubr
          89 -32 -13 callgsubr
        </CharString>
        <CharString name="V">
          36 344 642 rmoveto
          -78 -429 -77 429 rlineto
          -182 hlineto
          158 -642 rlineto
          203 hlineto
          158 642 rlineto
          endchar
        </CharString>
        <CharString name="W">
          339 653 642 rmoveto
          -64 -432 -86 432 rlineto
          -171 hlineto
          -86 -432 -54 432 rlineto
          -182 hlineto
          136 -642 rlineto
          201 hlineto
          71 383 71 -383 rlineto
          201 hlineto
          136 642 rlineto
          endchar
        </CharString>
        <CharString name="X">
          24 354 326 rmoveto
          143 316 rlineto
          -188 hlineto
          -54 -164 -53 164 rlineto
          -198 hlineto
          153 -316 -157 -326 rlineto
          186 hlineto
          69 180 69 -180 rlineto
          197 hlineto
          endchar
        </CharString>
        <CharString name="Y">
          22 519 642 138 callsubr
        </CharString>
        <CharString name="Yacute">
          22 453 825 26 callsubr
          199 -33 138 callsubr
        </CharString>
        <CharString name="Ydieresis">
          3 446 823 41 callgsubr
          313 -51 138 callsubr
        </CharString>
        <CharString name="Z">
          -33 444 642 216 callgsubr
        </CharString>
        <CharString name="Zacute">
          -33 431 825 26 callsubr
          146 211 callsubr
        </CharString>
        <CharString name="Zcaron">
          -33 326 675 -11 callsubr
          -139 -158 rmoveto
          120 callgsubr
          125 -411 vlineto
          endchar
        </CharString>
        <CharString name="Zdotaccent">
          -33 325 805 259 callgsubr
          119 211 callsubr
        </CharString>
        <CharString name="a">
          -18 225 125 -36 callsubr
          -54 170 300 callgsubr
        </CharString>
        <CharString name="aacute">
          -18 443 682 26 callsubr
          -85 -407 -8 callgsubr
          endchar
        </CharString>
        <CharString name="abreve">
          -18 225 125 -8 callgsubr
          35 183 rmoveto
          77 callsubr
          100 -21 callgsubr
          26 vlineto
          endchar
        </CharString>
        <CharString name="acircumflex">
          -18 241 601 24 callgsubr
          37 -407 -8 callgsubr
          endchar
        </CharString>
        <CharString name="acute">
          3 116 532 111 callsubr
          endchar
        </CharString>
        <CharString name="adieresis">
          -18 206 672 rmoveto
          -152 -130 152 hlineto
          19 -417 -8 callgsubr
          22 173 rmoveto
          -130 307 callgsubr
          vlineto
          endchar
        </CharString>
        <CharString name="ae">
          239 247 callgsubr
          -295 -175 237 callgsubr
          27 vlineto
          69 29 rlineto
          -48 213 callgsubr
          234 374 rmoveto
          -69 -41 -21 -35 -21 hvcurveto
          35 -19 -47 21 -48 hhcurveto
          -68 hlineto
          -95 -38 -49 -75 hvcurveto
          -66 170 43 202 callgsubr
          -38 vlineto
          -239 -98 rlineto
          -84 171 callsubr
          67 hlineto
          48 47 21 35 19 hvcurveto
          -35 21 41 -21 69 hhcurveto
          63 -21 callgsubr
          43 -165 -25 287 callgsubr
          59 251 174 -21 callsubr
          endchar
        </CharString>
        <CharString name="agrave">
          -18 334 532 98 callsubr
          25 -407 -36 callsubr
          -54 170 300 callgsubr
        </CharString>
        <CharString name="amacron">
          -18 434 661 210 callsubr
          -209 -430 -36 callsubr
          -54 170 300 callgsubr
        </CharString>
        <CharString name="ampersand">
          128 220 115 237 callgsubr
          42 vlineto
          20 8 9 15 9 vhcurveto
          17 10 108 -112 rlineto
          -107 393 rmoveto
          15 8 7 17 vhcurveto
          23 -60 callsubr
          -61 vlineto
          -26 -16 -9 -34 -19 vhcurveto
          -18 19 -5 9 22 vvcurveto
          426 -479 rmoveto
          -84 90 rlineto
          13 19 6 24 27 vvcurveto
          127 -138 -70 vlineto
          -106 113 16 9 rlineto
          68 41 37 27 79 vvcurveto
          68 vlineto
          75 -37 49 -107 vhcurveto
          -117 106 callgsubr
          -68 vlineto
          -41 19 -26 51 -53 vhcurveto
          4 -5 -16 -9 rlineto
          -70 -39 -24 -26 -69 vvcurveto
          -58 -36 callgsubr
          265 hlineto
          11 hlineto
          35 -36 rlineto
          endchar
        </CharString>
        <CharString name="aogonek">
          -18 225 209 callgsubr
          124 -302 270 callsubr
          -167 -64 hlineto
          51 callsubr
          79 248 callsubr
        </CharString>
        <CharString name="apostrophemod">
          255 callsubr
        </CharString>
        <CharString name="approxequal">
          66 360 335 rmoveto
          167 callsubr
          -196 vmoveto
          167 callsubr
          endchar
        </CharString>
        <CharString name="aring">
          -18 201 634 11 callsubr
          28 -405 -36 callsubr
          -54 170 300 callgsubr
        </CharString>
        <CharString name="asciicircum">
          207 214 669 rmoveto
          -122 -389 rlineto
          177 hlineto
          61 245 61 -245 rlineto
          177 hlineto
          -122 389 rlineto
          endchar
        </CharString>
        <CharString name="asciitilde">
          222 441 204 rmoveto
          67 hlineto
          80 31 31 69 hvcurveto
          85 -155 -45 vlineto
          -23 -5 -9 -23 vhcurveto
          -36 -38 77 -88 hhcurveto
          -67 hlineto
          -80 -31 -31 -69 hvcurveto
          -85 155 45 vlineto
          23 5 9 23 vhcurveto
          49 41 -77 72 hhcurveto
          endchar
        </CharString>
        <CharString name="asterisk">
          -107 373 469 rmoveto
          -38 118 -16 -5 -30 -9 -23 -13 -19 -12 rlinecurve
          7 21 4 26 30 vvcurveto
          17 -125 -16 vlineto
          -31 5 -27 6 -21 vhcurveto
          -18 12 -24 13 -29 9 -16 5 rcurveline
          -39 -118 15 -5 30 -10 27 -4 22 -1 rlinecurve
          -17 -13 -19 -18 -18 -25 -11 -15 rcurveline
          101 -73 10 13 19 26 12 24 7 22 rlinecurve
          8 -21 11 -24 18 -25 11 -14 rcurveline
          101 73 -10 13 -18 25 -19 19 -18 14 rlinecurve
          22 1 26 3 29 10 rrcurveto
          endchar
        </CharString>
        <CharString name="at">
          366 247 324 rmoveto
          -131 vlineto
          -68 35 -45 86 vhcurveto
          16 hlineto
          49 27 23 38 8 hvcurveto
          -61 216 vlineto
          95 38 49 75 hvcurveto
          290 vlineto
          75 -36 49 -95 vhcurveto
          -513 hlineto
          -95 -38 -49 -75 hvcurveto
          -474 171 callsubr
          430 115 -388 -58 callgsubr
          448 -53 callsubr
          431 -60 callsubr
          -275 107 callgsubr
          -44 253 -135 -58 hlineto
          36 -9 -27 22 -47 hhcurveto
          -16 hlineto
          -86 -35 -45 -68 hvcurveto
          146 -12 rmoveto
          14 7 6 15 vhcurveto
          25 hlineto
          16 8 -8 -19 hvcurveto
          -93 vlineto
          -19 -8 -8 -16 vhcurveto
          -25 hlineto
          -15 -7 6 14 hvcurveto
          endchar
        </CharString>
        <CharString name="atilde">
          -18 177 563 rmoveto
          165 callgsubr
          1 callsubr
          vlineto
          48 -407 -36 callsubr
          -54 170 300 callgsubr
        </CharString>
        <CharString name="b">
          -18 279 112 callgsubr
          -47 -29 -20 -34 -12 hvcurveto
          224 -170 -669 167 64 vlineto
          -40 9 30 -24 52 208 callgsubr
        </CharString>
        <CharString name="backslash">
          -86 -20 702 rmoveto
          307 -762 rlineto
          144 hlineto
          -307 762 rlineto
          endchar
        </CharString>
        <CharString name="bar">
          -231 50 833 rmoveto
          -1026 155 1026 vlineto
          endchar
        </CharString>
        <CharString name="braceleft">
          -171 265 654 rmoveto
          15 8 7 17 vhcurveto
          26 115 -79 hlineto
          -107 -40 -59 -75 hvcurveto
          -200 vlineto
          -57 -18 -25 -49 vhcurveto
          -7 -115 7 hlineto
          49 18 -25 -55 hvcurveto
          -202 vlineto
          -75 40 -59 107 vhcurveto
          79 115 -26 -58 callgsubr
          223 vlineto
          71 -32 40 -46 3 vhcurveto
          42 10 36 33 82 vvcurveto
          endchar
        </CharString>
        <CharString name="braceright">
          -171 61 443 rmoveto
          -82 36 -33 42 -10 vhcurveto
          -46 -3 -32 -40 -71 vvcurveto
          -223 107 callgsubr
          -26 -115 79 hlineto
          107 40 59 75 hvcurveto
          202 vlineto
          55 18 25 49 vhcurveto
          7 115 -7 hlineto
          -49 -18 25 57 hvcurveto
          200 vlineto
          75 -40 59 -107 vhcurveto
          -79 -115 26 -60 callsubr
          endchar
        </CharString>
        <CharString name="bracketleft">
          -180 307 666 rmoveto
          125 -267 -948 267 125 -92 698 vlineto
          endchar
        </CharString>
        <CharString name="bracketright">
          -180 277 791 rmoveto
          -267 -125 92 -698 -92 -125 267 hlineto
          endchar
        </CharString>
        <CharString name="breve">
          3 297 682 rmoveto
          77 callsubr
          100 -21 callgsubr
          26 vlineto
          endchar
        </CharString>
        <CharString name="brokenbar">
          -231 40 262 rmoveto
          -355 175 355 vlineto
          116 vmoveto
          355 -175 -355 vlineto
          endchar
        </CharString>
        <CharString name="bullet">
          -101 50 321 rmoveto
          -81 67 -67 81 81 67 67 81 81 -67 67 -81 -81 -67 -67 -81 vhcurveto
          endchar
        </CharString>
        <CharString name="c">
          -46 431 306 rmoveto
          69 -21 callsubr
          -107 hlineto
          17 callsubr
          vlineto
          endchar
        </CharString>
        <CharString name="cacute">
          -46 433 682 26 callsubr
          -123 -33 rmoveto
          17 callsubr
          164 69 -21 callsubr
          endchar
        </CharString>
        <CharString name="caron">
          3 173 532 132 callgsubr
          endchar
        </CharString>
        <CharString name="ccaron">
          -46 303 532 -11 callsubr
          28 -33 rmoveto
          17 callsubr
          164 69 -21 callsubr
          endchar
        </CharString>
        <CharString name="ccedilla">
          -46 156 -123 -7 callgsubr
          -53 -115 91 -21 callgsubr
          90 -160 vlineto
          275 352 rmoveto
          69 -21 callsubr
          -107 hlineto
          17 callsubr
          vlineto
          endchar
        </CharString>
        <CharString name="cedilla">
          3 199 -123 -7 callgsubr
          -53 -115 91 -21 callgsubr
          90 -160 vlineto
          endchar
        </CharString>
        <CharString name="cent">
          -46 431 306 rmoveto
          69 vlineto
          67 -32 47 -84 8 vhcurveto
          82 -165 -81 vlineto
          -87 -8 -33 -47 -68 vvcurveto
          -251 vlineto
          -68 33 -47 87 -8 vhcurveto
          -81 165 82 vlineto
          84 8 32 47 67 vvcurveto
          69 -164 -46 107 callgsubr
          -17 hlineto
          -16 callgsubr
          17 8 -7 -15 hvcurveto
          -46 vlineto
          endchar
        </CharString>
        <CharString name="circumflex">
          3 40 532 175 callsubr
        </CharString>
        <CharString name="colon">
          -245 40 335 rmoveto
          170 callgsubr
          -499 vmoveto
          170 callgsubr
          endchar
        </CharString>
        <CharString name="comma">
          209 callsubr
          endchar
        </CharString>
        <CharString name="copyright">
          275 742 338 rmoveto
          181 -53 123 -205 vhcurveto
          -196 hlineto
          -205 -53 -123 -181 hvcurveto
          -34 vlineto
          -181 53 -123 205 vhcurveto
          196 hlineto
          205 53 123 181 hvcurveto
          -421 -205 rmoveto
          -109 -52 28 159 hvcurveto
          70 vlineto
          159 52 28 109 vhcurveto
          130 hlineto
          109 52 -28 -159 hvcurveto
          -70 vlineto
          -159 -52 -28 -109 vhcurveto
          -38 161 rmoveto
          -10 -6 -5 -11 vhcurveto
          -18 hlineto
          -12 -5 5 10 hvcurveto
          123 vlineto
          10 5 5 12 vhcurveto
          18 hlineto
          11 6 -5 -10 hvcurveto
          -33 117 53 vlineto
          51 -28 34 -73 vhcurveto
          -84 hlineto
          -74 -27 -34 -51 hvcurveto
          -163 vlineto
          -51 27 -34 74 vhcurveto
          84 hlineto
          73 28 34 51 hvcurveto
          54 -117 vlineto
          endchar
        </CharString>
        <CharString name="currency">
          98 280 198 rmoveto
          -52 -25 9 67 hvcurveto
          51 vlineto
          67 25 10 52 vhcurveto
          15 hlineto
          51 26 -10 -67 hvcurveto
          -51 vlineto
          -67 -26 -9 -51 vhcurveto
          213 128 rmoveto
          42 -5 37 -14 29 vhcurveto
          51 51 -101 102 -77 -77 rlineto
          1 -11 -12 1 -13 hhcurveto
          -75 hlineto
          -14 -14 -1 -1 -12 hvcurveto
          -78 77 -101 -102 54 -54 rlineto
          -12 -29 -5 -35 -41 vvcurveto
          -52 vlineto
          -34 3 -30 9 -26 vhcurveto
          -49 -49 101 -102 61 61 rlineto
          -3 17 19 -2 21 hhcurveto
          75 hlineto
          19 18 1 3 16 hvcurveto
          60 -60 101 102 -45 45 rlineto
          9 27 4 31 36 vvcurveto
          endchar
        </CharString>
        <CharString name="d">
          -18 198 callsubr
          544 rmoveto
          -224 vlineto
          119 callsubr
          669 vlineto
          endchar
        </CharString>
        <CharString name="dagger">
          -43 444 490 rmoveto
          284 callgsubr
          -484 175 484 130 hlineto
          endchar
        </CharString>
        <CharString name="daggerdbl">
          -13 459 375 rmoveto
          115 284 callgsubr
          -245 -129 -115 129 -152 175 307 callgsubr
          115 -130 245 vlineto
          endchar
        </CharString>
        <CharString name="danda">
          -87 290 674 291 callgsubr
          endchar
        </CharString>
        <CharString name="dcaron">
          23 198 callsubr
          320 rmoveto
          119 callsubr
          669 -170 vlineto
          210 hmoveto
          309 callsubr
          endchar
        </CharString>
        <CharString name="dcroat">
          -13 230 209 callgsubr
          247 497 rmoveto
          -50 47 -170 -47 -60 -75 60 -102 hlineto
          119 callsubr
          547 50 vlineto
          endchar
        </CharString>
        <CharString name="degree">
          -13 444 518 rmoveto
          75 -35 49 -107 vhcurveto
          -120 hlineto
          -107 -35 -49 -75 hvcurveto
          -91 vlineto
          -75 35 -49 107 vhcurveto
          120 hlineto
          107 35 49 75 hvcurveto
          -158 3 -7 callgsubr
          -38 -58 callgsubr
          85 -53 callsubr
          38 -60 callsubr
          endchar
        </CharString>
        <CharString name="dieresis">
          3 54 542 132 callsubr
          endchar
        </CharString>
        <CharString name="divide">
          36 25 257 290 callsubr
          160 155 rmoveto
          -115 163 115 vlineto
          -163 -320 rmoveto
          -115 163 115 vlineto
          endchar
        </CharString>
        <CharString name="dollar">
          -6 230 378 237 callgsubr
          95 -53 callsubr
          29 -60 callsubr
          -54 175 77 vlineto
          71 -35 48 -96 5 vhcurveto
          85 -166 -85 vlineto
          -96 -4 -36 -48 -72 vvcurveto
          -132 vlineto
          -75 31 -51 104 vhcurveto
          96 -60 callsubr
          -91 vlineto
          296 callgsubr
          54 -175 -77 vlineto
          -71 36 -48 94 -5 vhcurveto
          -84 166 84 vlineto
          97 4 36 48 72 vvcurveto
          132 vlineto
          75 -33 47 -104 vhcurveto
          endchar
        </CharString>
        <CharString name="dotaccent">
          3 169 542 313 callgsubr
        </CharString>
        <CharString name="dotlessi">
          164 callsubr
          endchar
        </CharString>
        <CharString name="dottedcircle">
          163 139 517 rmoveto
          -26 18 -19 26 26 18 19 26 25 -18 19 -26 -26 -18 -19 -25 vhcurveto
          -82 -110 rmoveto
          -25 20 -19 26 24 20 19 25 25 -20 19 -24 -26 -20 -19 -25 vhcurveto
          -13 -126 rmoveto
          -25 19 -18 25 26 18 18 310 callsubr
          52 -116 rmoveto
          -26 18 -18 26 25 19 18 26 25 -19 19 -25 -26 -18 -19 -25 vhcurveto
          101 -75 rmoveto
          -26 19 -20 26 25 19 20 26 24 -19 20 -25 -26 -19 -20 -24 vhcurveto
          127 -16 rmoveto
          -26 18 -18 26 26 19 18 26 26 -19 18 -26 -26 -18 -18 -26 vhcurveto
          121 53 rmoveto
          -26 19 -18 25 25 20 18 26 25 -20 19 -25 -25 -19 -19 -25 vhcurveto
          73 98 rmoveto
          -25 19 -19 26 24 19 19 25 26 -19 19 -24 -26 -19 -19 -26 vhcurveto
          10 134 rmoveto
          -26 18 -18 26 25 19 18 26 26 -19 18 -25 -26 -18 -18 -26 vhcurveto
          -50 118 rmoveto
          -25 19 -19 25 26 18 19 310 callsubr
          -95 68 rmoveto
          -24 19 -20 26 25 18 20 24 26 -18 19 -25 -26 -19 -19 -26 vhcurveto
          -126 15 rmoveto
          -26 18 -18 26 26 18 18 26 26 -18 18 -26 -26 -18 -18 -26 vhcurveto
          endchar
        </CharString>
        <CharString name="doubledanda">
          153 290 674 291 callgsubr
          240 706 291 callgsubr
          endchar
        </CharString>
        <CharString name="dvA">
          280 callgsubr
          -230 -35 callgsubr
          60 vlineto
          endchar
        </CharString>
        <CharString name="dvAA">
          280 callsubr
          -480 -42 callgsubr
          endchar
        </CharString>
        <CharString name="dvAI">
          15 532 642 rmoveto
          -62 201 callsubr
          -324 38 callsubr
        </CharString>
        <CharString name="dvAU">
          280 callsubr
          -61 hlineto
          -14 201 233 callsubr
          -200 hlineto
          117 -98 53 -45 32 -25 54 -33 rlinecurve
          -248 -42 callgsubr
          endchar
        </CharString>
        <CharString name="dvAbbreviationsign">
          -100 50 319 rmoveto
          -100 58 -49 90 90 59 49 100 100 -59 49 -90 -90 -58 -49 -100 vhcurveto
          117 hmoveto
          45 9 11 22 22 10 -11 -45 -45 -12 -11 -20 -20 -11 11 45 vhcurveto
          endchar
        </CharString>
        <CharString name="dvAcandra">
          280 callgsubr
          -230 -35 callgsubr
          60 vlineto
          -18 358 91 callgsubr
        </CharString>
        <CharString name="dvAnusvara">
          -497 -181 857 92 callsubr
        </CharString>
        <CharString name="dvAnusvara.amI">
          -497 30 787 92 callsubr
        </CharString>
        <CharString name="dvAvagraha">
          -35 394 539 rmoveto
          103 -218 242 callsubr
          -132 211 callgsubr
          63 -73 callgsubr
          -153 -79 callgsubr
          -22 121 callgsubr
          36 -170 -52 217 callsubr
          185 vlineto
          73 -31 34 -109 vhcurveto
          -63 -91 callgsubr
          100 -82 callsubr
          endchar
        </CharString>
        <CharString name="dvB">
          -170 392 642 rmoveto
          -412 -113 412 hlineto
          -231 -451 rmoveto
          231 110 hlineto
          0 -64 87 -26 callsubr
          -160 vlineto
          -93 45 -9 callsubr
          39 137 rmoveto
          117 vlineto
          -47 callgsubr
          endchar
        </CharString>
        <CharString name="dvBA">
          80 200 234 callgsubr
          -617 -113 387 -204 hlineto
          141 callgsubr
        </CharString>
        <CharString name="dvBH">
          9 278 215 86 callsubr
          348 113 rmoveto
          -178 90 -73 callsubr
          -74 -98 66 callsubr
          178 vlineto
          endchar
        </CharString>
        <CharString name="dvBHA">
          239 278 215 40 callgsubr
          -98 vlineto
          -109 -31 -34 -73 hvcurveto
          -128 vlineto
          98 callgsubr
        </CharString>
        <CharString name="dvBH_LA">
          714 228 callsubr
          953 313 rmoveto
          -715 -113 485 -57 -96 hlineto
          210 callgsubr
          -44 -33 -9 -21 -22 hvcurveto
          -100 88 -73 callsubr
          -72 109 callsubr
          -130 163 callgsubr
          68 -222 211 callgsubr
          103 113 -50 hlineto
          -15 -8 5 15 hvcurveto
          202 228 callgsubr
          35 callgsubr
          hlineto
          endchar
        </CharString>
        <CharString name="dvBH_NA">
          697 754 215 -93 callgsubr
          -476 273 callsubr
          72 -82 callsubr
          45 hlineto
          936 335 rmoveto
          -698 -113 468 -57 -328 hlineto
          -77 -38 -17 -35 -15 hvcurveto
          -78 110 -73 callsubr
          -94 109 callsubr
          -108 -103 callgsubr
          102 68 -102 18 callsubr
        </CharString>
        <CharString name="dvBH_R">
          72 356 -80 rmoveto
          233 236 rlineto
          160 vlineto
          -393 -396 rlineto
          82 370 -100 callgsubr
          24 -82 callsubr
          45 hlineto
          170 113 rmoveto
          83 vlineto
          -75 callgsubr
          -67 157 callgsubr
          141 113 vlineto
          endchar
        </CharString>
        <CharString name="dvBH_RA">
          239 278 290 -100 callgsubr
          24 -82 callsubr
          45 hlineto
          478 308 rmoveto
          -230 -195 -78 83 -73 callsubr
          -67 -98 vlineto
          -109 -31 -34 -73 hvcurveto
          -60 173 callsubr
        </CharString>
        <CharString name="dvBH_R_YA">
          617 904 101 callgsubr
          39 -5 callsubr
          -626 -239 -100 callgsubr
          19 -82 callsubr
          45 hlineto
          856 313 rmoveto
          -608 -113 114 hlineto
          -61 callsubr
          -33 -79 callgsubr
          -203 88 -73 callsubr
          -72 109 callsubr
          -55 -103 callgsubr
          49 78 -77 vlineto
          -330 -332 rlineto
          160 hlineto
          198 196 rlineto
          -27 26 44 -11 63 -30 callsubr
        </CharString>
        <CharString name="dvBH_VA">
          474 228 callsubr
          713 313 rmoveto
          -475 -113 245 37 callsubr
          -58 -36 -10 -20 -21 hvcurveto
          -93 88 -73 callsubr
          -72 109 callsubr
          -130 163 callgsubr
          68 -124 -6 callsubr
        </CharString>
        <CharString name="dvBH_YA">
          607 894 -59 callsubr
          100 -64 callgsubr
          53 -5 callsubr
          -616 -314 174 callgsubr
          846 327 rmoveto
          -608 -113 114 hlineto
          26 8 -8 -26 290 callgsubr
          -193 102 -73 callsubr
          -86 109 callsubr
          -116 -103 callgsubr
          110 68 -110 vlineto
          -90 callgsubr
        </CharString>
        <CharString name="dvB_BA">
          417 537 332 rmoveto
          -47 callgsubr
          -337 117 rmoveto
          -47 callgsubr
          734 427 rmoveto
          -954 -113 724 218 callsubr
          -91 vlineto
          -19 6 -33 -44 callsubr
          170 hlineto
          35 23 9 18 13 hvcurveto
          -19 22 32 -8 42 hhcurveto
          170 hlineto
          15 12 2 3 9 hvcurveto
          -83 -95 callsubr
        </CharString>
        <CharString name="dvB_BHA">
          566 180 callgsubr
          280 162 callgsubr
          -405 5 rmoveto
          -47 callgsubr
          883 427 46 callsubr
          109 callsubr
          -59 vlineto
          151 callsubr
          300 callsubr
          -327 -95 callsubr
        </CharString>
        <CharString name="dvB_BH_RA">
          566 180 callgsubr
          280 -239 -100 callgsubr
          24 -82 callsubr
          45 hlineto
          -405 -2 rmoveto
          -47 callgsubr
          883 427 rmoveto
          -230 -195 -78 83 -73 callsubr
          -67 109 callsubr
          -66 vlineto
          -19 6 -33 -44 callsubr
          230 hlineto
          52 40 28 48 17 hvcurveto
          -1 9 9 0 10 hhcurveto
          114 callgsubr
        </CharString>
        <CharString name="dvB_DA">
          318 200 332 rmoveto
          -47 callgsubr
          635 427 rmoveto
          -855 -113 625 225 callgsubr
          -40 39 callgsubr
          170 hlineto
          36 23 10 18 13 267 callgsubr
          59 hhcurveto
          -33 callsubr
        </CharString>
        <CharString name="dvB_DHA">
          426 180 callgsubr
          -125 -197 rmoveto
          -47 callgsubr
          750 427 rmoveto
          145 callsubr
          -304 42 callgsubr
          143 -96 callgsubr
        </CharString>
        <CharString name="dvB_DH_VA">
          678 180 callgsubr
          -125 -197 rmoveto
          -47 callgsubr
          995 427 rmoveto
          -477 -113 247 39 callsubr
          -140 42 callgsubr
          156 hlineto
          35 23 10 17 13 hvcurveto
          -19 22 32 -8 42 19 callgsubr
        </CharString>
        <CharString name="dvB_JA">
          558 223 191 178 callgsubr
          48 -59 rcurveline
          -3 -1 -1 -6 vhcurveto
          772 451 rmoveto
          -1095 -113 865 -57 248 callgsubr
          -147 39 callgsubr
          187 hlineto
          31 17 10 17 8 hvcurveto
          -19 26 40 -8 58 hhcurveto
          86 253 callgsubr
        </CharString>
        <CharString name="dvB_JHA">
          565 853 305 rmoveto
          -280 123 callgsubr
          89 hlineto
          -620 -416 106 callsubr
          174 vlineto
          12 -36 13 -25 20 -37 51 -96 rcurveline
          -3 -1 -1 -6 vhcurveto
          783 529 rmoveto
          -1102 -113 614 -57 -74 hlineto
          -106 callgsubr
          -56 211 callgsubr
          69 -73 callgsubr
          -59 57 callgsubr
          -55 hlineto
          -132 259 rlineto
          67 103 -144 261 callgsubr
          -218 vlineto
          -93 45 -9 callsubr
          164 hlineto
          20 15 5 9 10 hvcurveto
          -76 170 62 92 vlineto
          109 31 34 73 hvcurveto
          73 vlineto
          8 -1 305 callsubr
          72 -202 139 callsubr
        </CharString>
        <CharString name="dvB_J_YA">
          936 1223 101 callgsubr
          39 -5 callsubr
          -1000 -338 178 callgsubr
          48 -59 rcurveline
          -3 -1 -1 -6 vhcurveto
          1150 451 rmoveto
          -1473 -113 979 hlineto
          -61 callsubr
          -33 -79 callgsubr
          -365 179 callsubr
          257 -170 -147 39 callgsubr
          187 hlineto
          31 17 10 17 8 hvcurveto
          -19 26 180 callsubr
          124 70 -124 vlineto
          -90 callgsubr
        </CharString>
        <CharString name="dvB_JxA">
          561 528 86 callgsubr
          -328 332 rmoveto
          -47 callgsubr
          878 427 rmoveto
          -1098 -113 868 252 callsubr
          -173 -147 39 callgsubr
          177 hlineto
          32 23 8 15 14 hvcurveto
          -16 22 31 -7 38 hhcurveto
          119 253 callgsubr
        </CharString>
        <CharString name="dvB_LA">
          565 200 332 rmoveto
          -47 callgsubr
          882 427 rmoveto
          -1102 -113 872 -57 77 callgsubr
          -20 vlineto
          69 callgsubr
          -55 callsubr
        </CharString>
        <CharString name="dvB_L_YA">
          943 1230 101 callgsubr
          39 -5 callsubr
          -1030 -197 rmoveto
          -47 callgsubr
          1260 427 rmoveto
          -1480 -113 986 hlineto
          -61 callsubr
          -33 -79 callgsubr
          -221 7 callsubr
          -20 vlineto
          -44 6 -29 75 callsubr
          183 callgsubr
          -124 hlineto
          -90 callgsubr
        </CharString>
        <CharString name="dvB_NA">
          548 605 215 -93 callgsubr
          -405 -27 rmoveto
          -47 callgsubr
          865 427 rmoveto
          -1085 -113 855 308 callgsubr
          -91 vlineto
          151 callsubr
          223 callgsubr
          35 callgsubr
          vlineto
          endchar
        </CharString>
        <CharString name="dvB_R">
          -145 -20 642 rmoveto
          -113 392 113 vlineto
          -172 -427 rmoveto
          117 vlineto
          -47 callgsubr
          -170 150 rmoveto
          -160 vlineto
          -93 45 -9 callsubr
          36 hlineto
          -85 -138 rlineto
          169 hlineto
          91 143 rlineto
          130 vlineto
          -33 32 -11 30 -34 43 -41 51 rcurveline
          5 callgsubr
          endchar
        </CharString>
        <CharString name="dvB_RA">
          80 223 191 178 callgsubr
          50 -60 rcurveline
          -2 -1 -3 -1 -4 hhcurveto
          293 451 rmoveto
          -617 -113 387 -204 hlineto
          70 callgsubr
          20 hlineto
          -84 -138 rlineto
          179 hlineto
          91 154 rlineto
          -94 -89 callsubr
          endchar
        </CharString>
        <CharString name="dvB_SA">
          537 824 363 rmoveto
          -70 hlineto
          -74 callsubr
          70 hlineto
          -624 -197 rmoveto
          -47 callgsubr
          854 427 rmoveto
          -1074 -113 576 88 callgsubr
          -147 hlineto
          69 callgsubr
          -67 callgsubr
          80 -170 -64 -86 callgsubr
          127 287 -250 -95 callsubr
        </CharString>
        <CharString name="dvB_SHA">
          550 180 callgsubr
          -125 -197 rmoveto
          -47 callgsubr
          307 432 104 callsubr
          -81 hlineto
          69 callgsubr
          -67 callgsubr
          80 -170 -64 -86 callgsubr
          110 43 vlineto
          -22 callgsubr
          217 -5 rmoveto
          -642 115 callgsubr
        </CharString>
        <CharString name="dvB_TA">
          323 200 332 rmoveto
          -47 callgsubr
          640 427 rmoveto
          -860 -113 630 -57 -103 hlineto
          -106 callgsubr
          -40 vlineto
          69 callgsubr
          -38 callsubr
        </CharString>
        <CharString name="dvB_VA">
          325 200 332 rmoveto
          -47 callgsubr
          642 427 rmoveto
          -862 -113 632 39 callsubr
          -40 39 callgsubr
          177 hlineto
          32 23 8 15 14 hvcurveto
          -16 22 31 -7 38 19 callgsubr
        </CharString>
        <CharString name="dvB_YA">
          458 745 189 callsubr
          -545 -197 rmoveto
          -47 callgsubr
          775 427 rmoveto
          -995 -113 501 177 callsubr
          -118 hlineto
          151 callsubr
          225 callsubr
          -94 -89 callsubr
          endchar
        </CharString>
        <CharString name="dvC">
          -248 214 335 rmoveto
          -77 callgsubr
          23 113 -272 -113 73 hlineto
          153 callsubr
          -93 45 -9 callsubr
          194 113 -132 -107 callsubr
          -236 427 rmoveto
          -113 391 113 vlineto
          endchar
        </CharString>
        <CharString name="dvCA">
          2 519 642 rmoveto
          -541 -113 311 -314 hlineto
          -19 -8 -5 -15 vhcurveto
          -29 34 callgsubr
          61 hlineto
          27 16 5 11 10 hvcurveto
          -94 -89 callsubr
          endchar
        </CharString>
        <CharString name="dvCH">
          204 721 233 callgsubr
          -741 -113 60 vlineto
          20 callgsubr
          305 196 callgsubr
          238 vlineto
          84 -50 23 -93 vhcurveto
          -76 hlineto
          -93 -50 -23 -84 hvcurveto
          -65 callsubr
          endchar
        </CharString>
        <CharString name="dvCHA">
          204 399 470 28 callgsubr
        </CharString>
        <CharString name="dvCH_RA">
          204 399 9 callgsubr
          -741 -113 60 vlineto
          20 callgsubr
          59 hlineto
          -94 -147 38 callgsubr
          -93 147 rlineto
          41 80 callsubr
        </CharString>
        <CharString name="dvCH_R_YA">
          14 callgsubr
          60 hlineto
          -94 -147 38 callgsubr
          -93 147 rlineto
          40 196 callgsubr
          251 vlineto
          1 193 vlineto
          -62 callgsubr
          -14 -3 callsubr
          -120 hlineto
          -90 callgsubr
        </CharString>
        <CharString name="dvCH_YA">
          14 callgsubr
          305 196 callgsubr
          251 vlineto
          1 193 vlineto
          -62 callgsubr
          -14 -3 callsubr
          -120 hlineto
          -90 callgsubr
        </CharString>
        <CharString name="dvC_CA">
          252 769 642 rmoveto
          -791 -113 561 149 callsubr
          -230 -113 31 hlineto
          166 callgsubr
          -80 161 callsubr
          -255 -113 73 hlineto
          153 callsubr
          -93 45 -9 callsubr
          81 hlineto
          33 24 12 19 12 hvcurveto
          -22 21 34 -9 45 19 callgsubr
        </CharString>
        <CharString name="dvC_CHA">
          464 659 9 callgsubr
          -1001 -113 320 110 callsubr
          -33 161 callsubr
          -255 -113 73 245 callsubr
          -64 13 51 -24 93 hhcurveto
          305 80 callsubr
        </CharString>
        <CharString name="dvC_CH_VA">
          454 649 -40 callgsubr
          -91 -628 106 callsubr
          41 vlineto
          26 8 8 26 vhcurveto
          91 -75 hlineto
          95 callsubr
          334 628 rmoveto
          113 -991 -113 310 110 callsubr
          -33 161 callsubr
          -250 -113 68 245 callsubr
          12 -59 44 -25 80 -4 rrcurveto
          -6 -9 -3 -11 -15 vvcurveto
          -57 265 callsubr
          291 vlineto
          89 6 42 36 84 vvcurveto
          238 vlineto
          71 -35 27 -67 7 vhcurveto
          59 vlineto
          endchar
        </CharString>
        <CharString name="dvC_MA">
          493 780 432 186 callsubr
          -1030 -113 552 202 callsubr
          -100 vlineto
          -26 -8 -8 -26 vhcurveto
          -23 34 callgsubr
          76 hlineto
          35 25 14 22 11 hvcurveto
          -26 24 42 -10 67 92 callgsubr
        </CharString>
        <CharString name="dvC_NA">
          475 532 6 callsubr
          -1012 -113 782 308 callgsubr
          -140 vlineto
          -26 -8 -8 -26 vhcurveto
          -23 34 callgsubr
          76 hlineto
          35 25 14 22 11 hvcurveto
          -26 24 42 -10 67 49 callgsubr
        </CharString>
        <CharString name="dvC_R">
          -199 214 335 rmoveto
          190 callsubr
          122 206 rlineto
          65 -81 vlineto
          -104 callsubr
          -236 407 rmoveto
          -113 340 113 vlineto
          endchar
        </CharString>
        <CharString name="dvC_RA">
          2 519 642 rmoveto
          -541 -113 311 -294 hlineto
          -92 callgsubr
          100 vlineto
          190 callsubr
          93 157 rlineto
          -97 -89 callsubr
          endchar
        </CharString>
        <CharString name="dvC_YA">
          385 672 -2 callsubr
          -922 -113 428 177 callsubr
          -167 hlineto
          -26 -8 -8 -26 vhcurveto
          -23 34 callgsubr
          76 hlineto
          37 25 15 23 10 hvcurveto
          -27 26 43 -11 63 -30 callsubr
        </CharString>
        <CharString name="dvCandrabindu">
          -497 -372 175 callgsubr
          49 71 92 callsubr
        </CharString>
        <CharString name="dvD">
          -23 264 hmoveto
          170 291 -170 -76 287 callsubr
          120 208 callsubr
          -69 callgsubr
          24 hlineto
          27 16 5 11 10 hvcurveto
          157 -155 199 callsubr
        </CharString>
        <CharString name="dvDA">
          -23 494 642 rmoveto
          -528 -113 298 -57 -98 hlineto
          -109 -31 -34 -73 hvcurveto
          -160 -3 callgsubr
        </CharString>
        <CharString name="dvDA_mvR">
          -23 434 359 rmoveto
          170 60 113 -528 240 callgsubr
          -160 275 callgsubr
          -95 -10 vlineto
          117 callsubr
          127 395 -170 -76 287 callsubr
          120 -32 callsubr
          endchar
        </CharString>
        <CharString name="dvDD">
          -27 147 -61 73 callsubr
          -333 703 rmoveto
          -113 257 -57 -63 vlineto
          -109 -31 -34 -73 hvcurveto
          -55 -70 callgsubr
          180 294 callgsubr
          hlineto
          endchar
        </CharString>
        <CharString name="dvDDA">
          -27 407 260 callsubr
          -510 -113 257 -57 -63 vlineto
          -109 -31 -34 -73 hvcurveto
          -55 99 callsubr
        </CharString>
        <CharString name="dvDDH">
          20 187 -61 73 callsubr
          95 420 176 callgsubr
          -238 vlineto
          -69 callgsubr
          125 -100 callsubr
          -25 callgsubr
          endchar
        </CharString>
        <CharString name="dvDDHA">
          20 448 359 176 callgsubr
          -238 vlineto
          -69 callgsubr
          125 -100 callsubr
          -25 callgsubr
          endchar
        </CharString>
        <CharString name="dvDDH_DDHA">
          20 448 359 176 callgsubr
          -248 vlineto
          -45 17 -17 30 -4 vhcurveto
          -5 vlineto
          -30 -4 -17 -18 -38 vvcurveto
          -149 vlineto
          -69 callgsubr
          116 -100 callsubr
          32 62 callsubr
          -72 -113 38 23 callgsubr
          -12 146 callsubr
          -48 -97 callgsubr
          175 -82 callsubr
          84 -100 callsubr
          32 62 callsubr
          -72 -113 38 23 callgsubr
          -12 146 callsubr
          -48 -97 callgsubr
          156 -32 callsubr
          endchar
        </CharString>
        <CharString name="dvDDH_R">
          20 167 -171 73 callsubr
          115 530 65 callgsubr
        </CharString>
        <CharString name="dvDDH_RA">
          20 448 359 65 callgsubr
        </CharString>
        <CharString name="dvDDH_YA">
          638 925 205 76 callgsubr
          -274 64 477 hlineto
          -2 callgsubr
          -1175 135 callsubr
          -238 vlineto
          -69 callgsubr
          125 -100 callsubr
          -25 callgsubr
          437 43 callgsubr
          -74 -95 callsubr
        </CharString>
        <CharString name="dvDDHxA">
          20 202 -183 -28 callsubr
          246 413 176 callgsubr
          -238 vlineto
          -69 callgsubr
          125 -100 callsubr
          -25 callgsubr
          endchar
        </CharString>
        <CharString name="dvDD_DDA">
          96 callgsubr
          -23 vlineto
          -54 22 -33 103 vhcurveto
          114 hlineto
          15 8 -6 -14 hvcurveto
          -23 vlineto
          -14 -8 -6 -15 vhcurveto
          -52 121 callgsubr
          11 -170 -27 vlineto
          -73 31 -34 109 vhcurveto
          152 274 callsubr
          -99 -91 callgsubr
          23 183 callsubr
        </CharString>
        <CharString name="dvDD_DDHA">
          96 callgsubr
          -149 vlineto
          -69 callgsubr
          116 -100 callsubr
          32 62 callsubr
          -72 -113 38 23 callgsubr
          -12 146 callsubr
          -48 -97 callgsubr
          175 183 callsubr
        </CharString>
        <CharString name="dvDD_R">
          -27 147 -171 73 callsubr
          -333 813 rmoveto
          57 callsubr
          180 294 callgsubr
          hlineto
          endchar
        </CharString>
        <CharString name="dvDD_RA">
          -27 407 260 callsubr
          -510 57 callsubr
          endchar
        </CharString>
        <CharString name="dvDD_VA">
          3 290 -73 rmoveto
          194 callgsubr
          37 hlineto
          14 9 1 3 9 hvcurveto
          147 365 281 callgsubr
          -540 -113 287 -57 -93 vlineto
          232 callgsubr
          93 -73 callgsubr
          -60 -79 callgsubr
          -52 121 callgsubr
          36 -170 -92 -66 callsubr
          -43 153 callgsubr
          489 vlineto
          73 -31 34 -109 vhcurveto
          -93 -91 callgsubr
          23 -82 callsubr
          endchar
        </CharString>
        <CharString name="dvDD_YA">
          581 868 215 76 callgsubr
          -258 54 461 hlineto
          -2 callgsubr
          -1118 -113 257 -57 -63 hlineto
          -109 -31 -34 -73 hvcurveto
          -55 -70 callgsubr
          388 43 callgsubr
          -84 170 vlineto
          -3 529 rlineto
          63 hlineto
          endchar
        </CharString>
        <CharString name="dvDDxA">
          -27 169 -194 -28 callsubr
          238 434 281 callgsubr
          -510 -113 257 -57 -63 vlineto
          -109 -31 -34 -73 hvcurveto
          -55 99 callsubr
        </CharString>
        <CharString name="dvDH">
          -78 220 427 rmoveto
          87 -63 callsubr
          -136 vlineto
          -37 17 -15 30 -4 vhcurveto
          178 callsubr
          373 113 -310 -32 callgsubr
          endchar
        </CharString>
        <CharString name="dvDHA">
          109 633 642 rmoveto
          145 callsubr
          -304 78 callgsubr
          174 -96 callgsubr
        </CharString>
        <CharString name="dvDH_MA">
          629 916 432 rmoveto
          -105 97 105 hlineto
          -275 -70 callsubr
          505 323 rmoveto
          -743 -113 238 202 callsubr
          -100 78 callgsubr
          204 hlineto
          31 17 10 17 8 hvcurveto
          -19 26 180 callsubr
          114 105 -319 -95 callsubr
        </CharString>
        <CharString name="dvDH_NA">
          584 641 6 callsubr
          -699 hlineto
          1 -113 rlineto
          468 308 callgsubr
          -140 78 callgsubr
          204 113 callsubr
        </CharString>
        <CharString name="dvDH_N_YA">
          972 1259 -17 callgsubr
          848 310 rmoveto
          -1086 -113 592 hlineto
          -61 callsubr
          -30 -79 callgsubr
          -463 hlineto
          -106 callgsubr
          -113 78 callgsubr
          204 hlineto
          31 17 10 17 8 hvcurveto
          -19 26 180 callsubr
          127 70 -127 vlineto
          -90 callgsubr
        </CharString>
        <CharString name="dvDH_R">
          -95 243 211 106 callsubr
          37 vlineto
          -16 callsubr
          81 -63 callsubr
          -130 -66 callsubr
          -89 vlineto
          283 callgsubr
          66 hlineto
          -96 -158 308 callsubr
          vlineto
          endchar
        </CharString>
        <CharString name="dvDH_RA">
          109 633 642 rmoveto
          145 callsubr
          258 callsubr
          -137 -107 callsubr
          37 vlineto
          -16 callsubr
          81 -63 callsubr
          -130 -66 callsubr
          -89 vlineto
          283 callgsubr
          66 hlineto
          253 callsubr
        </CharString>
        <CharString name="dvDH_VA">
          358 875 642 rmoveto
          -472 -113 245 39 callsubr
          -140 78 callgsubr
          204 hlineto
          30 17 10 16 9 hvcurveto
          -18 22 31 -8 41 286 callgsubr
          57 vlineto
          endchar
        </CharString>
        <CharString name="dvDH_YA">
          494 781 -2 callsubr
          -608 -113 114 177 callsubr
          -167 hlineto
          11 callgsubr
          204 hlineto
          32 17 11 18 8 hvcurveto
          -20 27 40 -9 56 -30 callsubr
        </CharString>
        <CharString name="dvD_BA">
          51 271 callsubr
          -144 -146 rmoveto
          -18 -10 5 20 hvcurveto
          91 vlineto
          3 vlineto
          113 -119 rlineto
          274 675 170 callsubr
          119 hlineto
          27 16 5 11 10 hvcurveto
          187 callgsubr
        </CharString>
        <CharString name="dvD_BHA">
          197 208 158 rmoveto
          44 callgsubr
          -40 -113 24 23 callgsubr
          -295 152 67 231 113 -231 vlineto
          506 609 rmoveto
          -734 -113 504 225 callgsubr
          -160 275 callgsubr
          -174 170 371 -170 -76 136 callgsubr
          120 15 callsubr
        </CharString>
        <CharString name="dvD_B_RA">
          103 271 callsubr
          -172 -30 rmoveto
          3 vlineto
          113 -119 rlineto
          -85 hlineto
          -18 -10 5 20 hvcurveto
          387 650 170 callsubr
          11 hlineto
          -126 -135 rlineto
          148 hlineto
          139 151 rlineto
          187 callgsubr
        </CharString>
        <CharString name="dvD_DA">
          -23 414 359 rmoveto
          170 80 113 -528 -113 278 -57 -112 vlineto
          -89 -41 -32 -74 hvcurveto
          -60 -66 callsubr
          -60 154 callsubr
          79 124 callsubr
          291 -170 304 callsubr
          -76 -107 callsubr
          7 -86 callsubr
          59 113 -59 -107 callsubr
          11 -82 callsubr
          endchar
        </CharString>
        <CharString name="dvD_DHA">
          264 180 80 rmoveto
          -16 callsubr
          11 -82 callsubr
          69 113 -102 172 callsubr
          601 569 rmoveto
          -801 -113 571 -44 89 callgsubr
          -168 vlineto
          138 callgsubr
        </CharString>
        <CharString name="dvD_GA">
          111 callgsubr
          -50 12 -33 30 -20 vhcurveto
          -163 274 callgsubr
          157 13 vlineto
          27 16 5 11 10 hvcurveto
          -288 150 485 206 callsubr
        </CharString>
        <CharString name="dvD_GHA">
          264 781 642 rmoveto
          -801 -113 571 -44 -98 hlineto
          -105 -33 -32 -68 -2 hvcurveto
          -143 172 callsubr
          7 vlineto
          -16 callsubr
          11 -82 callsubr
          110 -62 hlineto
          138 callgsubr
        </CharString>
        <CharString name="dvD_G_RA">
          111 callgsubr
          -50 12 -33 30 -20 vhcurveto
          -103 274 callgsubr
          97 13 vlineto
          27 16 5 11 10 hvcurveto
          -134 vlineto
          -273 -250 rlineto
          146 hlineto
          127 114 rlineto
          -78 150 545 206 callsubr
        </CharString>
        <CharString name="dvD_MA">
          225 512 187 rmoveto
          -78 104 -170 -46 287 callsubr
          90 309 callgsubr
          78 hlineto
          -2 callgsubr
          -762 -113 284 225 callgsubr
          -130 275 callgsubr
          -124 170 74 78 -74 -95 callsubr
        </CharString>
        <CharString name="dvD_NA">
          111 callgsubr
          -69 callgsubr
          44 hlineto
          27 16 5 11 10 hvcurveto
          -87 -98 vlineto
          -74 -41 -26 -81 hvcurveto
          -57 vlineto
          120 -1 rlineto
          41 -86 callsubr
          70 -121 150 505 -150 -76 hlineto
          95 callsubr
          -42 -107 callsubr
          120 15 callsubr
        </CharString>
        <CharString name="dvD_R">
          -23 264 hmoveto
          170 291 -170 -56 287 callsubr
          100 208 callsubr
          -56 21 -34 45 -12 vhcurveto
          -100 298 callgsubr
          93 157 rlineto
          157 -158 199 callsubr
        </CharString>
        <CharString name="dvD_RA">
          111 callgsubr
          56 callgsubr
        </CharString>
        <CharString name="dvD_VA">
          1 256 68 rmoveto
          14 9 1 3 9 hvcurveto
          -77 vlineto
          194 callgsubr
          299 574 rmoveto
          -552 -113 322 -57 -122 hlineto
          -106 callgsubr
          -223 107 callsubr
        </CharString>
        <CharString name="dvD_YA">
          131 396 202 rmoveto
          -17 -69 callsubr
          -140 -52 callgsubr
          17 hvcurveto
          13 vlineto
          18 8 4 15 vhcurveto
          69 103 -69 hlineto
          -15 -8 4 17 hvcurveto
          12 vlineto
          14 8 4 15 vhcurveto
          95 138 68 hlineto
          -2 callgsubr
          -622 -113 172 -44 -6 hlineto
          -89 -41 -29 -67 hvcurveto
          -48 vlineto
          -33 17 -14 30 -3 vhcurveto
          -5 vlineto
          -30 -4 -17 -13 -34 vvcurveto
          -61 vlineto
          -67 41 -29 89 vhcurveto
          173 hlineto
          27 16 5 9 10 hvcurveto
          151 callgsubr
        </CharString>
        <CharString name="dvE">
          15 532 642 rmoveto
          -552 38 callsubr
        </CharString>
        <CharString name="dvEcandra">
          15 362 675 rmoveto
          230 callgsubr
          -140 -93 vlineto
          -65 38 -34 114 vhcurveto
          366 -33 rmoveto
          -552 38 callsubr
        </CharString>
        <CharString name="dvEight">
          44 callsubr
        </CharString>
        <CharString name="dvEyelash">
          -146 371 392 rmoveto
          -69 265 callgsubr
          119 hlineto
          -391 363 rmoveto
          -113 391 113 vlineto
          endchar
        </CharString>
        <CharString name="dvEyelash_HA">
          206 723 642 rmoveto
          -743 -113 513 -57 -98 hlineto
          -104 -29 -30 -67 -5 hvcurveto
          -47 -91 callgsubr
          57 -162 -73 vlineto
          -73 26 -44 109 vhcurveto
          142 -5 hlineto
          -30 -4 -17 -15 -37 vvcurveto
          -74 vlineto
          -49 callsubr
          247 113 -215 -34 callsubr
          215 170 60 hlineto
          endchar
        </CharString>
        <CharString name="dvEyelash_YA">
          241 528 -2 callsubr
          -778 -113 284 hlineto
          -61 callsubr
          -83 -79 callgsubr
          -80 265 callgsubr
          5 -74 hlineto
          -90 callgsubr
        </CharString>
        <CharString name="dvFive">
          110 callgsubr
        </CharString>
        <CharString name="dvFour">
          171 callgsubr
        </CharString>
        <CharString name="dvG">
          -26 223 191 -64 callsubr
          255 451 rmoveto
          -516 -113 -74 callgsubr
          60 vlineto
          endchar
        </CharString>
        <CharString name="dvGA">
          229 223 191 -64 callsubr
          505 451 rmoveto
          -766 -113 -74 callgsubr
          120 callsubr
        </CharString>
        <CharString name="dvGH">
          -215 412 233 callgsubr
          -432 -113 66 vlineto
          188 callsubr
          -86 -66 callsubr
          -96 vlineto
          -49 callsubr
          211 113 -179 -107 callsubr
          64 95 callgsubr
          113 -33 -107 callsubr
          55 vlineto
          26 8 8 26 vhcurveto
          endchar
        </CharString>
        <CharString name="dvGHA">
          35 322 172 callgsubr
          -2 callgsubr
          -572 -113 66 hlineto
          188 callsubr
          -86 -66 callsubr
          -96 vlineto
          -49 callsubr
          72 -96 callgsubr
        </CharString>
        <CharString name="dvGH_MA">
          521 808 -60 callgsubr
          -238 -94 rmoveto
          -50 callgsubr
          -55 -107 callsubr
          64 95 callgsubr
          113 -33 -107 callsubr
          55 vlineto
          26 8 8 26 vhcurveto
          316 202 callsubr
          716 317 rmoveto
          -1058 -113 66 hlineto
          188 callsubr
          -86 -66 callsubr
          -96 vlineto
          -49 callsubr
          83 hlineto
          34 24 12 20 11 hvcurveto
          -22 25 41 -10 64 92 callgsubr
        </CharString>
        <CharString name="dvGH_NA">
          493 790 472 rmoveto
          224 callgsubr
          -140 vlineto
          -50 callgsubr
          -55 -107 callsubr
          64 95 callgsubr
          113 -33 -107 callsubr
          55 vlineto
          26 8 8 26 vhcurveto
          546 hlineto
          20 callsubr
          -1040 -113 66 hlineto
          188 callsubr
          -86 -66 callsubr
          -96 vlineto
          -49 callsubr
          83 hlineto
          34 24 12 20 11 hvcurveto
          -22 25 41 -10 64 49 callgsubr
        </CharString>
        <CharString name="dvGH_R">
          -163 354 233 callgsubr
          -374 -113 66 vlineto
          188 callsubr
          -86 -66 callsubr
          -96 vlineto
          -72 34 -34 75 -1 vhcurveto
          -96 -158 308 callsubr
          -121 vlineto
          -104 callsubr
          44 95 callgsubr
          113 -33 -107 callsubr
          55 vlineto
          26 8 8 26 vhcurveto
          endchar
        </CharString>
        <CharString name="dvGH_RA">
          37 324 235 rmoveto
          95 callsubr
          -68 -107 callsubr
          44 95 callgsubr
          113 -33 -107 callsubr
          55 vlineto
          26 8 8 26 vhcurveto
          80 hlineto
          -2 callgsubr
          -574 -113 66 hlineto
          188 callsubr
          -86 -66 callsubr
          -96 vlineto
          -72 34 -34 74 -1 vhcurveto
          253 callsubr
        </CharString>
        <CharString name="dvGH_YA">
          413 700 130 callsubr
          -55 -107 callsubr
          64 95 callgsubr
          113 -33 -107 callsubr
          55 vlineto
          26 8 8 26 vhcurveto
          192 169 callgsubr
          -950 -113 66 hlineto
          188 callsubr
          -86 -66 callsubr
          -96 vlineto
          -49 callsubr
          83 hlineto
          35 25 13 21 10 hvcurveto
          -24 26 43 -10 60 -30 callsubr
        </CharString>
        <CharString name="dvG_BA">
          561 681 332 rmoveto
          -47 callgsubr
          -458 -24 -64 callsubr
          837 451 rmoveto
          -1098 -113 -74 callgsubr
          412 -204 vlineto
          141 callgsubr
        </CharString>
        <CharString name="dvG_BHA">
          710 223 191 -64 callsubr
          -261 338 rmoveto
          -74 callgsubr
          50 113 -506 vlineto
          769 -427 40 callgsubr
          -98 vlineto
          -109 -31 -34 -73 hvcurveto
          -128 vlineto
          98 callgsubr
        </CharString>
        <CharString name="dvG_BH_YA">
          1088 223 191 -64 callsubr
          -261 338 rmoveto
          -74 callgsubr
          50 113 -506 vlineto
          1385 -417 -66 callgsubr
          100 -64 callgsubr
          53 -5 callsubr
          -616 -314 174 callgsubr
          846 327 rmoveto
          -608 -113 114 hlineto
          26 8 -8 -26 290 callgsubr
          -193 102 -73 callsubr
          -86 109 callsubr
          -116 -103 callgsubr
          110 68 -110 vlineto
          -90 callgsubr
        </CharString>
        <CharString name="dvG_DA">
          455 223 191 -64 callsubr
          731 451 rmoveto
          -992 -113 -74 callgsubr
          306 278 callsubr
          -160 -3 callgsubr
        </CharString>
        <CharString name="dvG_DHA">
          575 223 191 -64 callsubr
          -261 338 rmoveto
          -74 callgsubr
          54 113 -510 vlineto
          1119 hmoveto
          145 callsubr
          -304 78 callgsubr
          174 -96 callgsubr
        </CharString>
        <CharString name="dvG_DH_VA">
          827 223 191 -64 callsubr
          -261 338 rmoveto
          -74 callgsubr
          54 113 -510 vlineto
          1364 hmoveto
          -475 -113 245 69 callsubr
          -140 78 callgsubr
          198 hlineto
          31 22 8 14 13 hvcurveto
          -15 22 30 -7 38 19 callgsubr
        </CharString>
        <CharString name="dvG_DH_YA">
          960 223 191 -64 callsubr
          -261 338 rmoveto
          -74 callgsubr
          54 113 -510 vlineto
          1267 -417 25 callsubr
          -608 -113 114 177 callsubr
          -167 hlineto
          11 callgsubr
          198 hlineto
          33 23 9 16 13 hvcurveto
          -17 26 39 -8 52 -30 callsubr
        </CharString>
        <CharString name="dvG_GA">
          695 689 191 -64 callsubr
          -484 hmoveto
          -90 callsubr
          113 vlineto
          26 5 5 26 vhcurveto
          37 -144 hlineto
          -84 callsubr
          971 451 rmoveto
          -1232 -113 -74 callgsubr
          296 -57 -58 vlineto
          -67 callsubr
          120 callsubr
        </CharString>
        <CharString name="dvG_GHA">
          497 796 172 callgsubr
          -573 -338 -64 callsubr
          785 451 rmoveto
          -1046 -113 -74 callgsubr
          84 vlineto
          188 callsubr
          -86 -66 callsubr
          -96 vlineto
          -49 callsubr
          72 -96 callgsubr
        </CharString>
        <CharString name="dvG_JA">
          695 223 191 -64 callsubr
          979 451 rmoveto
          -1240 -113 -74 callgsubr
          554 -57 -240 -257 vlineto
          157 callsubr
          -170 -267 139 callgsubr
        </CharString>
        <CharString name="dvG_LA">
          709 223 191 -64 callsubr
          985 451 rmoveto
          -1246 -113 -74 callgsubr
          560 -57 -96 vlineto
          -37 -15 -17 -30 -4 hvcurveto
          -5 hlineto
          30 -4 -15 17 -37 hhcurveto
          -141 hlineto
          -86 -45 -34 -93 hvcurveto
          54 callgsubr
        </CharString>
        <CharString name="dvG_MA">
          710 997 -60 callgsubr
          -526 -128 -64 callsubr
          986 451 rmoveto
          -1247 -113 -74 callgsubr
          313 -97 109 callsubr
          -120 18 callgsubr
        </CharString>
        <CharString name="dvG_NA">
          692 749 215 -93 callgsubr
          -526 -168 -64 callsubr
          968 451 rmoveto
          -1229 -113 -74 callgsubr
          543 -57 -328 vlineto
          187 callsubr
        </CharString>
        <CharString name="dvG_NNA">
          705 742 215 10 callgsubr
          -519 -338 -64 callsubr
          981 451 rmoveto
          -1242 -113 -74 callgsubr
          68 -324 -103 callgsubr
          324 120 callsubr
        </CharString>
        <CharString name="dvG_N_YA">
          1075 1362 -17 callgsubr
          -521 -141 -64 callsubr
          1351 451 rmoveto
          -1612 -113 -74 callgsubr
          662 205 callsubr
          -30 -79 callgsubr
          -463 hlineto
          -106 callgsubr
          -133 -103 callgsubr
          127 70 -127 vlineto
          -90 callgsubr
        </CharString>
        <CharString name="dvG_R">
          103 346 -80 rmoveto
          218 219 rlineto
          161 vlineto
          -378 -380 rlineto
          37 351 127 callgsubr
          -261 371 rmoveto
          247 callsubr
          86 hlineto
          259 callsubr
          128 113 vlineto
          endchar
        </CharString>
        <CharString name="dvG_RA">
          228 223 271 78 callsubr
        </CharString>
        <CharString name="dvG_R_YA">
          611 898 -78 callgsubr
          -675 -258 127 callgsubr
          887 371 rmoveto
          -1148 239 callsubr
          -72 -103 callgsubr
          244 198 vlineto
          -28 callgsubr
          -136 hlineto
          -334 -336 rlineto
          160 hlineto
          199 200 rlineto
          -30 25 45 -12 66 -30 callsubr
        </CharString>
        <CharString name="dvG_SA">
          681 968 363 rmoveto
          -70 hlineto
          -74 callsubr
          70 hlineto
          -745 -338 -64 callsubr
          957 451 rmoveto
          -1218 -113 -74 callgsubr
          264 vlineto
          1 callgsubr
          103 callsubr
          127 287 -250 -95 callsubr
        </CharString>
        <CharString name="dvG_VA">
          469 223 191 -64 callsubr
          745 451 rmoveto
          -1006 -113 -74 callgsubr
          320 52 callsubr
          124 144 callsubr
          -18 callsubr
        </CharString>
        <CharString name="dvG_YA">
          602 889 -78 callgsubr
          -666 -338 -64 callsubr
          878 451 rmoveto
          -1139 -113 -74 callgsubr
          189 vlineto
          -28 callgsubr
          -187 hlineto
          -90 callgsubr
        </CharString>
        <CharString name="dvGx">
          -26 166 86 callgsubr
          57 191 -64 callsubr
          255 451 rmoveto
          -516 -113 -74 callgsubr
          60 vlineto
          endchar
        </CharString>
        <CharString name="dvGxA">
          229 170 -117 -28 callsubr
          53 179 -64 callsubr
          505 451 rmoveto
          -766 -113 -74 callgsubr
          120 callsubr
        </CharString>
        <CharString name="dvGx_R">
          103 198 328 rmoveto
          26 5 5 26 vhcurveto
          37 -64 hlineto
          -107 callgsubr
          77 -137 rmoveto
          259 callsubr
          128 113 -584 247 callsubr
          375 142 rmoveto
          -378 -380 rlineto
          160 hlineto
          218 219 rlineto
          -99 -163 92 callsubr
        </CharString>
        <CharString name="dvGx_RA">
          228 436 -179 -28 callsubr
          -213 321 78 callsubr
        </CharString>
        <CharString name="dvH">
          -30 448 359 rmoveto
          170 125 113 -593 240 callgsubr
          -55 -66 callsubr
          -66 vlineto
          -49 callsubr
          247 113 -215 -107 callsubr
          34 -86 callsubr
          340 113 -340 hlineto
          -15 -8 6 12 hvcurveto
          15 vlineto
          12 8 6 15 vhcurveto
          endchar
        </CharString>
        <CharString name="dvHA">
          -9 508 642 rmoveto
          -528 -113 298 -57 -98 hlineto
          51 callgsubr
          247 113 -215 -34 callsubr
          215 170 60 hlineto
          endchar
        </CharString>
        <CharString name="dvHA_mU">
          -9 448 359 rmoveto
          170 60 113 -528 240 callgsubr
          -47 -66 callsubr
          -74 vlineto
          -93 30 -34 131 vhcurveto
          50 hlineto
          26 5 -5 -26 hvcurveto
          -9 vlineto
          -26 -5 -5 -26 vhcurveto
          -39 hlineto
          -21 -12 5 17 -11 hvcurveto
          -20 31 rlineto
          -199 hlineto
          30 -51 rlineto
          -78 46 47 -37 110 hhcurveto
          139 hlineto
          86 45 -20 callgsubr
          44 vlineto
          93 -45 33 -86 vhcurveto
          -88 -34 callsubr
          endchar
        </CharString>
        <CharString name="dvHA_mUU">
          -9 499 -2 rmoveto
          76 -51 -32 39 -110 hhcurveto
          -73 -34 callsubr
          215 170 60 113 94 callgsubr
          -47 -66 callsubr
          -84 vlineto
          -48 6 -29 26 -14 vhcurveto
          -2 -12 -1 -13 -15 vvcurveto
          -44 vlineto
          -93 35 201 callgsubr
          179 hlineto
          endchar
        </CharString>
        <CharString name="dvHA_mvR">
          -26 431 227 callgsubr
          60 113 -511 -113 281 -57 -81 vlineto
          51 callgsubr
          247 93 -215 -107 callsubr
          102 -86 callsubr
          34 hlineto
          11 4 -4 -8 hvcurveto
          -19 -28 -13 -27 vvcurveto
          -27 19 -15 40 vhcurveto
          113 66 -46 hlineto
          -11 -4 4 8 hvcurveto
          21 32 15 35 vvcurveto
          33 -22 14 -44 vhcurveto
          -98 123 callsubr
        </CharString>
        <CharString name="dvH_LA">
          121 431 227 callgsubr
          207 113 -658 182 callsubr
          230 93 -198 -107 callsubr
          257 -86 callsubr
          235 23 callgsubr
          -10 -42 vlineto
          -23 -9 -9 -14 -6 hvcurveto
          -1 hlineto
          16 -5 -13 7 -29 hhcurveto
          -27 hlineto
          -55 -33 -19 -55 hvcurveto
          -78 vlineto
          -55 33 -19 55 vhcurveto
          53 70 -47 hlineto
          -15 -4 5 15 hvcurveto
          46 vlineto
          15 4 -83 callsubr
          12 hlineto
          15 4 -5 -15 hvcurveto
          -36 75 36 vlineto
          15 4 -83 callsubr
          24 -156 85 252 hlineto
          56 -28 29 -72 vhcurveto
          -245 123 callsubr
        </CharString>
        <CharString name="dvH_MA">
          241 528 272 rmoveto
          -91 hlineto
          29 -15 -30 15 -55 hhcurveto
          -104 10 callsubr
          215 170 80 hlineto
          -2 callgsubr
          -778 -113 298 -57 -98 hlineto
          51 callgsubr
          247 113 -215 -107 callsubr
          42 -86 callsubr
          20 23 callgsubr
          -39 170 45 80 -185 -95 callsubr
        </CharString>
        <CharString name="dvH_NA">
          19 431 227 callgsubr
          105 113 -556 -113 281 -57 -81 vlineto
          51 callgsubr
          220 93 -188 -107 callsubr
          115 -86 callsubr
          145 23 callgsubr
          -4 -61 vlineto
          -61 -36 -20 -55 hvcurveto
          -24 94 20 vlineto
          16 5 7 18 vhcurveto
          41 -52 85 121 hlineto
          56 -28 29 -72 vhcurveto
          -155 123 callsubr
        </CharString>
        <CharString name="dvH_NNA">
          69 357 198 rmoveto
          -11 -1 -6 -9 vhcurveto
          -11 hlineto
          -9 -1 6 11 hvcurveto
          58 31 vlineto
          74 113 rmoveto
          160 155 113 -606 -113 281 -57 -81 vlineto
          51 callgsubr
          230 93 -198 -107 callsubr
          115 -86 callsubr
          12 -65 hlineto
          -36 20 -25 48 vhcurveto
          57 hlineto
          48 20 25 36 hvcurveto
          65 10 vlineto
          15 10 -5 -19 hvcurveto
          -62 85 71 vlineto
          56 -28 29 -72 vhcurveto
          -225 123 callsubr
        </CharString>
        <CharString name="dvH_RA">
          19 431 227 callgsubr
          105 113 -556 -113 281 -57 -81 vlineto
          51 callgsubr
          230 93 -198 -107 callsubr
          115 -86 callsubr
          69 hlineto
          -64 -113 rlineto
          90 hlineto
          63 111 rlineto
          8 -3 4 -6 -13 vvcurveto
          -90 85 99 vlineto
          56 -28 29 -72 vhcurveto
          -155 123 callsubr
        </CharString>
        <CharString name="dvH_VA">
          76 431 227 callgsubr
          162 113 -613 182 callsubr
          210 93 -178 -107 callsubr
          257 -86 callsubr
          184 23 callgsubr
          -116 vlineto
          -50 callgsubr
          -64 hlineto
          -15 -4 5 15 hvcurveto
          18 vlineto
          15 4 -83 callsubr
          47 70 -53 hlineto
          -55 -33 -19 -55 hvcurveto
          -50 vlineto
          -55 33 -19 55 vhcurveto
          72 hlineto
          14 11 3 6 7 hvcurveto
          -42 85 269 vlineto
          56 -28 29 -72 vhcurveto
          -194 123 callsubr
        </CharString>
        <CharString name="dvH_YA">
          241 518 241 rmoveto
          -50 callgsubr
          -55 hlineto
          4 9 1 10 9 vvcurveto
          6 vlineto
          53 -25 32 -72 vhcurveto
          -104 10 callsubr
          198 160 87 hlineto
          -2 callgsubr
          -768 252 callgsubr
          hlineto
          51 callgsubr
          230 93 -198 -107 callsubr
          115 -86 callsubr
          77 hlineto
          13 6 -5 -12 hvcurveto
          -15 vlineto
          -12 -6 -5 -13 vhcurveto
          -49 -70 225 hlineto
          14 11 3 6 7 hvcurveto
          -146 -95 callsubr
        </CharString>
        <CharString name="dvI">
          -35 414 227 callgsubr
          68 113 -502 25 callgsubr
          endchar
        </CharString>
        <CharString name="dvII">
          -35 490 709 rmoveto
          103 -106 242 callsubr
          -63 -264 25 callgsubr
          191 160 68 113 -68 47 hlineto
          -101 callgsubr
          endchar
        </CharString>
        <CharString name="dvII_Anusvara">
          -35 414 786 rmoveto
          -101 callgsubr
          72 103 -125 hlineto
          -106 callgsubr
          -160 -264 25 callgsubr
          191 160 68 113 -68 hlineto
          36 133 232 callsubr
        </CharString>
        <CharString name="dvJ">
          -19 560 125 callsubr
        </CharString>
        <CharString name="dvJA">
          231 748 642 122 callgsubr
        </CharString>
        <CharString name="dvJH">
          -34 414 227 callgsubr
          139 113 -573 56 callsubr
          73 vlineto
          8 -1 305 callsubr
          123 103 -330 278 callgsubr
        </CharString>
        <CharString name="dvJHA">
          215 503 305 rmoveto
          -280 123 callgsubr
          89 hlineto
          229 113 rmoveto
          -772 -113 284 -57 -74 hlineto
          -46 callsubr
          73 vlineto
          8 -1 305 callsubr
          72 -202 139 callsubr
        </CharString>
        <CharString name="dvJH_MA">
          679 966 -60 callgsubr
          -238 -14 rmoveto
          -277 123 callgsubr
          324 202 callsubr
          716 317 rmoveto
          -1236 113 callgsubr
          41 -33 119 92 callgsubr
        </CharString>
        <CharString name="dvJH_NA">
          681 968 472 rmoveto
          224 callgsubr
          -60 -277 vlineto
          -15 246 callsubr
          24 -82 callsubr
          191 160 554 hlineto
          20 callsubr
          -1218 113 callgsubr
          41 -33 119 49 callgsubr
        </CharString>
        <CharString name="dvJH_R">
          89 439 271 callgsubr
          138 516 rmoveto
          160 202 113 -636 56 callsubr
          73 vlineto
          8 -1 305 callsubr
          186 103 -393 278 callgsubr
        </CharString>
        <CharString name="dvJH_RA">
          215 503 351 rmoveto
          -280 -52 callgsubr
          12 hvcurveto
          14 vlineto
          13 -103 callsubr
          191 129 89 hlineto
          229 113 rmoveto
          -772 -113 284 -41 -74 hlineto
          -109 -31 -29 -63 hvcurveto
          -41 vlineto
          -63 31 -30 109 vhcurveto
          69 hlineto
          15 8 -4 -13 hvcurveto
          -28 vlineto
          -13 -8 -4 -15 vhcurveto
          -39 32 -170 -232 170 111 92 hlineto
          109 31 29 63 hvcurveto
          40 vlineto
          7 -1 6 -1 6 vhcurveto
          72 -80 hlineto
          -285 -241 rlineto
          149 hlineto
          136 121 rlineto
          -62 -95 callsubr
        </CharString>
        <CharString name="dvJH_YA">
          571 858 -78 callgsubr
          -230 -117 rmoveto
          -15 -69 callsubr
          -125 -87 -277 123 callgsubr
          200 169 callgsubr
          -1128 113 callgsubr
          51 -33 109 -30 callsubr
        </CharString>
        <CharString name="dvJ_BA">
          566 686 234 callgsubr
          -1103 -113 873 142 callsubr
          -533 93 callgsubr
          -154 vlineto
          45 callsubr
        </CharString>
        <CharString name="dvJ_DA">
          467 984 642 rmoveto
          -1004 -113 774 -57 -476 93 callgsubr
          -154 -3 callgsubr
        </CharString>
        <CharString name="dvJ_DDA">
          455 889 260 callsubr
          -992 -113 739 -57 -441 50 callsubr
          97 callsubr
        </CharString>
        <CharString name="dvJ_JA">
          707 1224 642 rmoveto
          -1244 -113 1014 252 callsubr
          -408 50 callsubr
          -154 139 callgsubr
        </CharString>
        <CharString name="dvJ_JHA">
          701 989 305 rmoveto
          -280 123 callgsubr
          89 hlineto
          229 113 rmoveto
          -1238 -113 750 -57 -452 93 callgsubr
          -50 211 callgsubr
          69 -73 callgsubr
          -59 57 callgsubr
          -227 170 62 92 -85 callsubr
          73 vlineto
          8 -1 305 callsubr
          72 -202 139 callsubr
        </CharString>
        <CharString name="dvJ_J_NYA">
          696 1180 642 rmoveto
          -1200 -113 970 -87 -672 179 callsubr
          227 -170 -237 163 callgsubr
          241 vlineto
          -62 callgsubr
          -186 57 callgsubr
          -227 170 62 92 -85 callsubr
          197 vlineto
          10 -2 8 -4 7 vhcurveto
          74 -329 139 callsubr
        </CharString>
        <CharString name="dvJ_J_VA">
          950 1467 642 rmoveto
          -1487 -113 1257 -37 callgsubr
          -442 -257 hlineto
          157 callsubr
          -408 50 callsubr
          -154 -79 callsubr
          72 vlineto
          -3 -11 -1 -15 -12 vvcurveto
          -116 -6 callsubr
        </CharString>
        <CharString name="dvJ_J_YA">
          1085 1372 101 callgsubr
          45 vlineto
          15 -3 12 -5 11 vhcurveto
          76 hlineto
          -2 callgsubr
          -1622 -113 1139 hlineto
          15 8 -5 -15 290 callgsubr
          -365 179 callsubr
          227 -408 -227 -25 callsubr
          227 -170 -237 163 callgsubr
          68 -124 163 callgsubr
          70 -124 vlineto
          -90 callgsubr
        </CharString>
        <CharString name="dvJ_KA">
          713 1216 233 callgsubr
          -1236 -113 781 13 callgsubr
          -442 93 callgsubr
          -154 -81 callsubr
        </CharString>
        <CharString name="dvJ_MA">
          715 1002 432 186 callsubr
          -1252 -113 774 -97 -476 -217 hlineto
          -107 callgsubr
          217 -170 -227 -46 callgsubr
          68 128 callsubr
        </CharString>
        <CharString name="dvJ_NA">
          697 754 6 callsubr
          -1234 -113 1004 -57 -706 93 callgsubr
          -154 18 callsubr
        </CharString>
        <CharString name="dvJ_NY">
          -27 67 329 rmoveto
          182 -73 callgsubr
          -186 57 callgsubr
          -227 170 62 92 -85 callsubr
          197 vlineto
          10 -2 8 -4 7 vhcurveto
          147 113 -516 hlineto
          -87 200 rmoveto
          -113 603 113 vlineto
          endchar
        </CharString>
        <CharString name="dvJ_NYA">
          223 740 642 rmoveto
          -760 -113 530 -87 -443 -113 182 -73 callgsubr
          -186 57 callgsubr
          -227 170 62 92 -85 callsubr
          197 vlineto
          10 -2 8 -4 7 vhcurveto
          74 -329 139 callsubr
        </CharString>
        <CharString name="dvJ_NY_YA">
          592 879 -59 callsubr
          80 -64 callgsubr
          73 -5 callsubr
          -2 callgsubr
          -1129 -113 635 hlineto
          -61 callsubr
          -67 -79 callgsubr
          -559 -113 182 -73 callgsubr
          -152 57 callgsubr
          -227 170 62 92 -85 callsubr
          163 vlineto
          10 -2 8 -4 7 vhcurveto
          65 -90 hlineto
          -90 callgsubr
        </CharString>
        <CharString name="dvJ_R">
          90 callgsubr
          endchar
        </CharString>
        <CharString name="dvJ_RA">
          231 748 642 97 callgsubr
        </CharString>
        <CharString name="dvJ_TA">
          472 989 642 rmoveto
          -1009 -113 779 -57 -481 93 callgsubr
          -252 9 callsubr
        </CharString>
        <CharString name="dvJ_TTA">
          467 984 642 rmoveto
          -1004 -113 774 -57 -476 93 callgsubr
          -232 vlineto
          -62 callsubr
        </CharString>
        <CharString name="dvJ_VA">
          474 991 642 rmoveto
          -1011 -113 781 -37 callgsubr
          -442 93 callgsubr
          -154 -6 callsubr
        </CharString>
        <CharString name="dvJ_YA">
          609 896 101 callgsubr
          45 vlineto
          15 -3 12 -5 11 vhcurveto
          76 hlineto
          -2 callgsubr
          -1146 -113 663 hlineto
          15 8 -5 -15 290 callgsubr
          -365 179 callsubr
          227 -170 -237 163 callgsubr
          70 -124 vlineto
          -90 callgsubr
        </CharString>
        <CharString name="dvJx">
          -19 182 hmoveto
          -129 122 129 vlineto
          256 125 callsubr
        </CharString>
        <CharString name="dvJxA">
          231 190 -117 -28 callsubr
          558 630 122 callgsubr
        </CharString>
        <CharString name="dvJx_JxA">
          707 182 -118 -28 callsubr
          483 86 callgsubr
          559 631 rmoveto
          -1244 -113 1014 252 callsubr
          -408 50 callsubr
          -154 139 callgsubr
        </CharString>
        <CharString name="dvJx_R">
          90 callgsubr
          -132 -201 92 callsubr
        </CharString>
        <CharString name="dvJx_RA">
          231 456 -179 -28 callsubr
          292 692 97 callgsubr
        </CharString>
        <CharString name="dvJx_YA">
          609 181 -117 -28 callsubr
          715 213 -66 callgsubr
          114 -64 callgsubr
          45 vlineto
          15 -3 12 -5 11 vhcurveto
          76 hlineto
          -2 callgsubr
          -1146 -113 663 hlineto
          15 8 -5 -15 290 callgsubr
          -365 179 callsubr
          227 -170 -237 163 callgsubr
          70 -124 vlineto
          -90 callgsubr
        </CharString>
        <CharString name="dvK">
          -5 573 233 callgsubr
          -593 -113 285 -314 vlineto
          -105 callsubr
          27 16 5 11 10 hvcurveto
          -94 170 305 -86 callsubr
          115 113 -85 hlineto
          196 callsubr
          vlineto
          endchar
        </CharString>
        <CharString name="dvKA">
          203 720 233 callgsubr
          -740 -113 285 -314 vlineto
          -19 -8 -5 -15 vhcurveto
          -29 hlineto
          -15 -8 5 19 hvcurveto
          134 vlineto
          15 8 5 15 vhcurveto
          11 103 -64 hlineto
          -109 -31 -34 -73 hvcurveto
          -160 -81 callsubr
        </CharString>
        <CharString name="dvKH">
          196 646 349 rmoveto
          158 callgsubr
          -24 callgsubr
          -160 vlineto
          -93 45 -9 callsubr
          165 113 -103 -107 callsubr
          -666 427 rmoveto
          294 callsubr
          vlineto
          -80 callgsubr
          345 307 callsubr
        </CharString>
        <CharString name="dvKHA">
          434 951 642 rmoveto
          -971 -113 249 hlineto
          -80 callgsubr
          294 -314 hlineto
          -105 callsubr
          27 16 5 11 10 hvcurveto
          -94 -89 callsubr
          endchar
        </CharString>
        <CharString name="dvKH_KHA">
          1115 1632 642 rmoveto
          -1652 -113 249 hlineto
          -80 callgsubr
          483 hlineto
          -38 callgsubr
          -257 hlineto
          -105 callsubr
          28 16 6 11 10 hvcurveto
          -68 9 55 -27 115 hhcurveto
          54 callsubr
          294 -314 hlineto
          -105 callsubr
          27 16 5 11 10 hvcurveto
          -94 -89 callsubr
          endchar
        </CharString>
        <CharString name="dvKH_MA">
          920 1207 432 186 callsubr
          -1457 -113 249 hlineto
          -80 callgsubr
          532 202 callsubr
          -110 vlineto
          -105 callgsubr
          82 hlineto
          36 22 9 18 12 hvcurveto
          -19 25 40 -8 58 92 callgsubr
        </CharString>
        <CharString name="dvKH_NA">
          902 959 6 callsubr
          -1439 -113 249 hlineto
          -80 callgsubr
          762 308 callgsubr
          -150 vlineto
          -105 callgsubr
          82 hlineto
          36 22 9 18 12 hvcurveto
          -19 25 159 callsubr
        </CharString>
        <CharString name="dvKH_R">
          223 646 349 46 callgsubr
        </CharString>
        <CharString name="dvKH_RA">
          434 951 642 rmoveto
          -971 294 callsubr
          hlineto
          128 callgsubr
          294 -294 hlineto
          -35 callsubr
          529 60 vlineto
          endchar
        </CharString>
        <CharString name="dvKH_SHA">
          904 210 230 -12 callsubr
        </CharString>
        <CharString name="dvKH_TA">
          677 1194 642 rmoveto
          -1214 -113 249 hlineto
          -80 callgsubr
          537 -57 -103 hlineto
          -106 callgsubr
          -150 vlineto
          -105 callsubr
          27 17 5 11 9 hvcurveto
          -64 4 34 -30 102 hhcurveto
          -38 callsubr
        </CharString>
        <CharString name="dvKH_VA">
          679 1196 642 8 callsubr
        </CharString>
        <CharString name="dvKH_YA">
          812 1099 -2 callsubr
          -1349 -113 249 hlineto
          -80 callgsubr
          408 177 callsubr
          -177 hlineto
          -105 callgsubr
          82 hlineto
          38 21 10 19 12 hvcurveto
          -20 26 41 -9 55 -30 callsubr
        </CharString>
        <CharString name="dvKHx">
          196 160 -177 -28 callsubr
          486 397 rmoveto
          158 callgsubr
          -24 callgsubr
          -160 vlineto
          -93 45 -9 callsubr
          165 113 -103 -107 callsubr
          -666 427 rmoveto
          294 callsubr
          vlineto
          -80 callgsubr
          345 307 callsubr
        </CharString>
        <CharString name="dvKHxA">
          434 160 -177 -28 callsubr
          791 690 rmoveto
          -971 -113 249 hlineto
          -80 callgsubr
          294 -314 hlineto
          -105 callsubr
          27 16 5 11 10 hvcurveto
          -94 -89 callsubr
          endchar
        </CharString>
        <CharString name="dvKHx_MA">
          920 160 -177 -28 callsubr
          1047 480 186 callsubr
          -1457 -113 249 hlineto
          -80 callgsubr
          532 202 callsubr
          -110 vlineto
          -105 callgsubr
          82 hlineto
          36 22 9 18 12 hvcurveto
          -19 25 40 -8 58 92 callgsubr
        </CharString>
        <CharString name="dvKHx_R">
          223 286 -179 -28 callsubr
          360 399 46 callgsubr
        </CharString>
        <CharString name="dvKHx_RA">
          434 687 -179 -28 callsubr
          264 692 rmoveto
          -971 294 callsubr
          hlineto
          128 callgsubr
          294 -294 hlineto
          -35 callsubr
          529 60 vlineto
          endchar
        </CharString>
        <CharString name="dvKHx_SA">
          904 160 -177 -28 callsubr
          1018 411 rmoveto
          -70 hlineto
          -74 callsubr
          70 hlineto
          -2 callgsubr
          -1428 -113 249 hlineto
          -80 callgsubr
          483 88 callgsubr
          -257 hlineto
          -92 callgsubr
          134 -82 callsubr
          10 103 -63 131 callgsubr
          -93 callsubr
          127 287 -250 -95 callsubr
        </CharString>
        <CharString name="dvKHx_SHA">
          904 160 -177 -28 callsubr
          50 278 -12 callsubr
        </CharString>
        <CharString name="dvKHx_TA">
          677 160 -177 -28 callsubr
          1034 690 rmoveto
          -1214 -113 249 hlineto
          -80 callgsubr
          537 -57 -103 hlineto
          -106 callgsubr
          -150 vlineto
          -105 callsubr
          27 17 5 11 9 hvcurveto
          -64 4 34 -30 102 hhcurveto
          -38 callsubr
        </CharString>
        <CharString name="dvKHx_VA">
          679 160 -177 -28 callsubr
          1036 690 8 callsubr
        </CharString>
        <CharString name="dvKHx_YA">
          812 160 -177 -28 callsubr
          939 273 25 callsubr
          -1349 -113 249 hlineto
          -80 callgsubr
          408 177 callsubr
          -177 hlineto
          -105 callgsubr
          82 hlineto
          38 21 10 19 12 hvcurveto
          -20 26 41 -9 55 -30 callsubr
        </CharString>
        <CharString name="dvK_CA">
          458 745 -44 callgsubr
          90 -86 callsubr
          23 113 -228 hlineto
          196 callsubr
          310 226 callsubr
          -995 -113 285 -314 hlineto
          -105 callsubr
          27 16 5 11 10 hvcurveto
          -94 170 305 -86 callsubr
          59 hlineto
          166 callgsubr
          -70 -6 callsubr
        </CharString>
        <CharString name="dvK_DA">
          461 748 459 rmoveto
          -260 -55 callgsubr
          86 313 226 callsubr
          -998 -113 285 -314 hlineto
          -105 callsubr
          27 16 5 11 10 hvcurveto
          -94 170 322 -86 callsubr
          52 -141 hlineto
          -69 callgsubr
          24 124 callsubr
          278 -170 -63 136 callgsubr
          107 204 callgsubr
          183 60 hlineto
          endchar
        </CharString>
        <CharString name="dvK_JA">
          701 988 244 callsubr
          -192 vlineto
          -49 callgsubr
          73 553 226 callsubr
          -1238 -113 285 -314 hlineto
          -105 callsubr
          27 16 5 11 10 hvcurveto
          -94 170 335 -86 callsubr
          52 -154 58 callsubr
        </CharString>
        <CharString name="dvK_KA">
          693 755 215 rmoveto
          -39 callsubr
          -226 -55 callgsubr
          73 320 vlineto
          257 callsubr
          -1230 -113 285 -314 vlineto
          -105 callsubr
          27 16 5 11 10 hvcurveto
          -94 170 335 -86 callsubr
          58 hlineto
          -4 -15 -2 -15 -14 vvcurveto
          -110 -81 callsubr
        </CharString>
        <CharString name="dvK_KHA">
          904 733 377 rmoveto
          -56 callgsubr
          99 -192 hlineto
          196 callsubr
          204 callsubr
          688 147 rmoveto
          -1441 -113 285 -314 hlineto
          -105 callsubr
          27 16 5 11 10 hvcurveto
          -94 170 305 -86 callsubr
          52 -214 105 callsubr
          294 -314 hlineto
          -105 callsubr
          27 16 5 11 10 hvcurveto
          -94 -89 callsubr
          endchar
        </CharString>
        <CharString name="dvK_LA">
          708 995 442 163 callsubr
          -294 hlineto
          196 callsubr
          560 226 callsubr
          -1245 -113 285 -314 hlineto
          -105 callsubr
          27 16 5 11 10 hvcurveto
          -94 170 305 -86 callsubr
          52 hlineto
          -5 0 -4 -5 vvcurveto
          -208 211 callgsubr
          183 callgsubr
          -329 139 callsubr
        </CharString>
        <CharString name="dvK_MA">
          709 996 -60 callgsubr
          -313 210 rmoveto
          313 -97 -260 -55 callgsubr
          791 226 rmoveto
          -1246 -113 285 -314 hlineto
          -105 callsubr
          27 16 5 11 10 hvcurveto
          -94 170 295 vlineto
          19 8 5 15 207 callgsubr
        </CharString>
        <CharString name="dvK_NA">
          691 978 442 rmoveto
          -490 hlineto
          196 callsubr
          543 vlineto
          -230 -15 callgsubr
          94 -82 callsubr
          45 hlineto
          460 313 rmoveto
          -1228 -113 285 -314 hlineto
          -105 callsubr
          27 16 5 11 10 hvcurveto
          -94 170 305 -86 callsubr
          52 -124 hlineto
          -104 callgsubr
          124 60 -329 -95 callsubr
        </CharString>
        <CharString name="dvK_NNA">
          721 758 215 10 callgsubr
          -270 145 callgsubr
          85 -87 vlineto
          718 200 rmoveto
          -1258 -113 285 -314 hlineto
          -105 callsubr
          27 16 5 11 10 hvcurveto
          -94 170 305 -86 callsubr
          62 -124 hlineto
          -104 callgsubr
          324 120 callsubr
        </CharString>
        <CharString name="dvK_PA">
          477 764 118 callsubr
          475 200 rmoveto
          -1014 -113 285 -314 hlineto
          -105 callsubr
          27 16 5 11 10 hvcurveto
          -94 170 305 -86 callsubr
          61 -124 hlineto
          109 callgsubr
          529 60 vlineto
          endchar
        </CharString>
        <CharString name="dvK_PHA">
          702 764 118 callsubr
          700 87 rmoveto
          113 -1239 -113 285 -314 vlineto
          -105 callsubr
          27 16 5 11 10 hvcurveto
          -94 170 305 -86 callsubr
          61 -124 hlineto
          -99 callsubr
        </CharString>
        <CharString name="dvK_P_RA">
          477 764 61 callgsubr
          -276 145 callgsubr
          84 -87 vlineto
          475 200 rmoveto
          -1014 -113 285 -314 hlineto
          -105 callsubr
          27 16 5 11 10 hvcurveto
          -94 170 305 -86 callsubr
          61 -104 147 callsubr
        </CharString>
        <CharString name="dvK_R">
          75 612 233 callgsubr
          -632 167 callgsubr
          -294 vlineto
          -35 callsubr
          305 -86 callsubr
          154 113 -124 hlineto
          196 callsubr
          vlineto
          endchar
        </CharString>
        <CharString name="dvK_RA">
          203 720 233 callgsubr
          -740 167 callgsubr
          -294 vlineto
          -35 callsubr
          335 -86 callsubr
          29 268 callsubr
          -19 hvcurveto
          -114 -63 callgsubr
          140 vlineto
          93 -45 34 -86 vhcurveto
          -61 -27 callgsubr
        </CharString>
        <CharString name="dvK_SA">
          680 967 116 callsubr
          79 -192 hlineto
          196 callsubr
          264 vlineto
          26 8 -8 -26 hvcurveto
          464 147 rmoveto
          -1217 -113 285 -314 hlineto
          -105 callsubr
          27 16 5 11 10 hvcurveto
          -94 170 305 -86 callsubr
          52 -222 -94 callgsubr
          287 -250 -95 callsubr
        </CharString>
        <CharString name="dvK_SHA">
          707 664 647 14 callsubr
          -206 -55 callgsubr
          139 51 113 -506 -113 285 -314 vlineto
          -105 callsubr
          27 16 5 11 10 hvcurveto
          -94 170 269 -86 callsubr
          66 104 callgsubr
        </CharString>
        <CharString name="dvK_SS">
          66 248 510 rmoveto
          19 10 -83 callsubr
          18 23 callgsubr
          -125 -25 callsubr
          348 -137 rmoveto
          113 -116 vlineto
          -41 callgsubr
          endchar
        </CharString>
        <CharString name="dvK_SSA">
          276 316 385 87 callsubr
          477 132 rmoveto
          -230 -281 -83 hlineto
          -41 callgsubr
          343 -248 139 callsubr
        </CharString>
        <CharString name="dvK_SS_MA">
          773 1060 -60 callgsubr
          -496 66 87 callsubr
          974 132 rmoveto
          -766 302 callgsubr
          -89 -37 -23 -48 -11 hvcurveto
          -97 hlineto
          -41 callgsubr
          354 -43 91 callsubr
        </CharString>
        <CharString name="dvK_SS_M_YA">
          1143 1430 -40 callsubr
          -496 53 87 callsubr
          1344 132 rmoveto
          -1136 306 callsubr
          -84 -98 hlineto
          -97 -35 -27 -57 -7 hvcurveto
          -95 hlineto
          -41 callgsubr
          354 -43 hlineto
          -104 callgsubr
          127 70 -127 vlineto
          -90 callgsubr
        </CharString>
        <CharString name="dvK_SS_VA">
          535 316 385 87 callsubr
          720 132 rmoveto
          -495 -113 265 69 callsubr
          -4 -81 vlineto
          -41 callgsubr
          341 -43 hlineto
          109 callgsubr
          529 60 vlineto
          endchar
        </CharString>
        <CharString name="dvK_SS_YA">
          652 939 -59 callsubr
          57 -64 callgsubr
          96 -5 callsubr
          -623 -120 -100 callgsubr
          101 136 callsubr
          853 132 rmoveto
          -628 -113 134 hlineto
          -61 callsubr
          -90 -79 callgsubr
          -206 303 callgsubr
          110 62 callsubr
          -86 158 callsubr
          -88 vlineto
          -22 6 -17 13 -12 vhcurveto
          -45 -11 -27 -35 -60 vvcurveto
          -165 vlineto
          -75 42 -35 65 vhcurveto
          131 hlineto
          27 16 5 11 10 hvcurveto
          -78 170 257 -170 -58 146 callsubr
          -71 -97 callgsubr
          111 -32 callsubr
          341 -67 hlineto
          -90 callgsubr
        </CharString>
        <CharString name="dvK_S_DDA">
          910 1111 472 rmoveto
          -106 callgsubr
          -2 -74 vlineto
          -74 callsubr
          277 -57 hlineto
          -441 -75 67 callgsubr
          611 -126 281 callgsubr
          -1447 -113 285 -314 vlineto
          -105 callsubr
          27 16 5 11 10 hvcurveto
          -94 170 305 -86 callsubr
          52 -222 -94 callgsubr
          303 vlineto
          -32 17 38 -15 73 hhcurveto
          -76 callgsubr
          endchar
        </CharString>
        <CharString name="dvK_S_P_LA">
          1431 1718 472 rmoveto
          50 callgsubr
          314 560 vlineto
          -811 140 callsubr
          1205 147 rmoveto
          -1968 -113 285 -314 hlineto
          -105 callsubr
          27 16 5 11 10 hvcurveto
          -94 170 305 -86 callsubr
          62 -222 -94 callgsubr
          298 -45 vlineto
          -93 45 -9 callsubr
          61 hlineto
          27 17 5 11 9 hvcurveto
          -64 4 34 -30 102 hhcurveto
          -55 callsubr
        </CharString>
        <CharString name="dvK_S_P_RA">
          946 1233 -17 callsubr
          -326 140 callsubr
          720 147 rmoveto
          -1483 -113 285 -314 hlineto
          -105 callsubr
          27 16 5 11 10 hvcurveto
          -94 170 305 -86 callsubr
          62 -222 -94 callgsubr
          298 -45 vlineto
          -68 24 -37 47 -14 vhcurveto
          -98 -146 rlineto
          186 hlineto
          86 139 rlineto
          -79 -95 callsubr
        </CharString>
        <CharString name="dvK_S_TA">
          912 1199 472 rmoveto
          -103 13 callsubr
          302 hlineto
          -466 -132 67 callgsubr
          696 147 rmoveto
          -1449 -113 285 -314 hlineto
          -105 callsubr
          27 16 5 11 10 hvcurveto
          -94 170 305 -86 callsubr
          52 -222 -94 callgsubr
          276 -143 9 callsubr
        </CharString>
        <CharString name="dvK_S_TTA">
          922 1209 472 rmoveto
          -98 289 callsubr
          -74 vlineto
          -74 callsubr
          312 hlineto
          -476 -132 67 callgsubr
          706 147 rmoveto
          -1459 -113 285 -314 hlineto
          -105 callsubr
          27 16 5 11 10 hvcurveto
          -94 170 305 -86 callsubr
          52 -222 -94 callgsubr
          291 -123 vlineto
          -62 callsubr
        </CharString>
        <CharString name="dvK_TA">
          247 764 233 callgsubr
          -784 -113 329 -73 vlineto
          11 -10 -16 5 -27 hhcurveto
          -249 -113 77 hlineto
          -13 -8 -7 -16 -24 vvcurveto
          -126 211 callgsubr
          64 103 -31 callsubr
          134 -86 callsubr
          29 154 callgsubr
          -335 -106 callsubr
        </CharString>
        <CharString name="dvK_THA">
          624 1141 642 32 callgsubr
          -162 -55 callgsubr
          142 56 113 -511 -113 285 -314 vlineto
          -105 callsubr
          27 16 5 11 10 hvcurveto
          -94 170 266 -86 callsubr
          62 -85 160 callgsubr
        </CharString>
        <CharString name="dvK_TTA">
          461 748 472 rmoveto
          -260 -55 callgsubr
          73 313 226 callsubr
          -998 -113 285 -314 hlineto
          -105 callsubr
          27 16 5 11 10 hvcurveto
          -94 170 335 -86 callsubr
          52 -232 hlineto
          -62 callsubr
        </CharString>
        <CharString name="dvK_T_RA">
          504 791 281 rmoveto
          -15 hlineto
          -81 119 rlineto
          51 -35 -24 16 -63 hhcurveto
          -85 -55 callgsubr
          78 356 226 callsubr
          -1041 -113 285 -314 hlineto
          -105 callsubr
          27 16 5 11 10 hvcurveto
          -94 170 330 95 callgsubr
          hlineto
          21 11 -4 -27 18 hvcurveto
          63 -92 238 callsubr
        </CharString>
        <CharString name="dvK_T_VA">
          713 1000 -44 callgsubr
          104 vlineto
          158 callgsubr
          -471 hlineto
          196 callsubr
          565 226 callsubr
          -1250 -113 285 -314 hlineto
          -105 callsubr
          27 16 5 11 10 hvcurveto
          -94 170 305 -86 callsubr
          62 hlineto
          -6 -5 -4 -9 -10 vvcurveto
          -198 156 callgsubr
          62 hlineto
          -6 -5 -4 -9 -10 vvcurveto
          -100 -6 callsubr
        </CharString>
        <CharString name="dvK_T_YA">
          839 1126 -59 callsubr
          93 -64 callgsubr
          60 223 callsubr
          -88 rmoveto
          -15 -69 callsubr
          -385 -55 callgsubr
          124 427 143 callgsubr
          -1376 -113 285 -314 hlineto
          -105 callsubr
          27 16 5 11 10 hvcurveto
          -94 170 284 -86 callsubr
          47 -201 hlineto
          0 callgsubr
          155 257 callgsubr
          -103 hlineto
          -90 callgsubr
        </CharString>
        <CharString name="dvK_VA">
          468 755 -44 callgsubr
          104 vlineto
          158 callgsubr
          -226 hlineto
          196 callsubr
          320 226 callsubr
          -1005 -113 285 -314 hlineto
          -105 callsubr
          27 16 5 11 10 hvcurveto
          -94 170 305 -86 callsubr
          52 -124 hlineto
          109 callgsubr
          529 60 vlineto
          endchar
        </CharString>
        <CharString name="dvK_V_YA">
          846 1133 -78 callgsubr
          -230 -117 rmoveto
          -15 -69 callsubr
          -125 -177 hlineto
          -39 callsubr
          -226 -55 callgsubr
          73 434 143 callgsubr
          -1383 -113 285 -314 hlineto
          -105 callsubr
          27 16 5 11 10 hvcurveto
          -94 170 335 -86 callsubr
          56 hlineto
          -2 -10 -2 -11 -11 vvcurveto
          -122 vlineto
          -93 45 -9 callsubr
          91 hlineto
          36 22 8 15 12 hvcurveto
          -16 26 38 -7 50 -30 callsubr
        </CharString>
        <CharString name="dvK_YA">
          601 888 -78 callgsubr
          -230 -117 rmoveto
          -15 -69 callsubr
          -147 -55 callgsubr
          153 189 143 callgsubr
          -1138 -113 285 -314 hlineto
          -105 callsubr
          27 16 5 11 10 hvcurveto
          -94 170 255 -86 callsubr
          52 -74 hlineto
          -90 callgsubr
        </CharString>
        <CharString name="dvKx">
          -5 87 86 callgsubr
          486 233 callgsubr
          -593 -113 285 -314 vlineto
          -105 callsubr
          27 16 5 11 10 hvcurveto
          -94 170 305 -86 callsubr
          115 113 -85 hlineto
          196 callsubr
          vlineto
          endchar
        </CharString>
        <CharString name="dvKxA">
          203 87 86 callgsubr
          633 233 callgsubr
          -740 -113 285 -314 vlineto
          -19 -8 -5 -15 vhcurveto
          -29 hlineto
          -15 -8 5 19 hvcurveto
          134 vlineto
          15 8 5 15 vhcurveto
          11 103 -64 hlineto
          -109 -31 -34 -73 hvcurveto
          -160 -81 callsubr
        </CharString>
        <CharString name="dvKx_BA">
          555 77 86 callgsubr
          651 369 rmoveto
          72 103 -312 -55 callgsubr
          73 407 -204 vlineto
          190 callgsubr
          -1092 -113 285 -314 hlineto
          -105 callsubr
          27 16 5 11 10 hvcurveto
          -94 170 335 -86 callsubr
          47 -154 hlineto
          45 callsubr
        </CharString>
        <CharString name="dvKx_KxA">
          693 83 -131 -28 callsubr
          484 -126 -28 callsubr
          188 214 rmoveto
          -39 callsubr
          -226 -55 callgsubr
          73 320 vlineto
          257 callsubr
          -1230 -113 285 -314 vlineto
          -105 callsubr
          27 16 5 11 10 hvcurveto
          -94 170 335 -86 callsubr
          58 hlineto
          -4 -15 -2 -15 -14 vvcurveto
          -110 -81 callsubr
        </CharString>
        <CharString name="dvKx_MA">
          709 77 86 callgsubr
          919 -60 callgsubr
          -313 210 rmoveto
          313 -97 -260 -55 callgsubr
          791 226 rmoveto
          -1246 -113 285 -314 hlineto
          -105 callsubr
          27 16 5 11 10 hvcurveto
          -94 170 295 vlineto
          19 8 5 15 207 callgsubr
        </CharString>
        <CharString name="dvKx_PHA">
          702 77 86 callgsubr
          687 118 callsubr
          700 87 rmoveto
          113 -1239 -113 285 -314 vlineto
          -105 callsubr
          27 16 5 11 10 hvcurveto
          -94 170 305 -86 callsubr
          61 -124 hlineto
          -99 callsubr
        </CharString>
        <CharString name="dvKx_PHxA">
          702 89 86 callgsubr
          508 86 callgsubr
          167 118 callsubr
          700 87 rmoveto
          113 -1239 -113 285 -314 vlineto
          -105 callsubr
          27 16 5 11 10 hvcurveto
          -94 170 305 -86 callsubr
          61 -124 hlineto
          -99 callsubr
        </CharString>
        <CharString name="dvKx_R">
          75 226 -179 -28 callsubr
          386 579 rmoveto
          113 -632 167 callgsubr
          -294 vlineto
          -35 callsubr
          305 -86 callsubr
          154 113 -124 hlineto
          196 callsubr
          vlineto
          endchar
        </CharString>
        <CharString name="dvKx_RA">
          203 226 -179 -28 callsubr
          494 579 rmoveto
          113 -740 167 callgsubr
          -294 vlineto
          -35 callsubr
          335 -86 callsubr
          29 268 callsubr
          -19 hvcurveto
          -114 -63 callgsubr
          140 vlineto
          93 -45 34 -86 vhcurveto
          -61 -27 callgsubr
        </CharString>
        <CharString name="dvKx_TA">
          479 77 86 callgsubr
          676 442 rmoveto
          -265 hlineto
          196 callsubr
          318 226 callsubr
          -1003 -113 285 -314 hlineto
          -105 callsubr
          27 16 5 11 10 hvcurveto
          -94 170 305 -86 callsubr
          52 -222 hlineto
          0 callgsubr
          176 257 callgsubr
          -329 139 callsubr
        </CharString>
        <CharString name="dvL">
          1 558 642 rmoveto
          -578 -113 578 hlineto
          -233 -57 rmoveto
          -99 callgsubr
          67 113 -116 hlineto
          -72 callsubr
          endchar
        </CharString>
        <CharString name="dvLA">
          251 768 642 rmoveto
          -788 -113 558 -57 -96 hlineto
          -37 -15 -17 -30 -4 hvcurveto
          -5 hlineto
          30 -4 -15 17 -37 hhcurveto
          -141 hlineto
          -86 -45 -34 -93 hvcurveto
          54 callgsubr
        </CharString>
        <CharString name="dvLL">
          280 callgsubr
          -770 -113 770 hlineto
          -191 -57 rmoveto
          -115 hlineto
          115 callsubr
          -39 -137 rmoveto
          -120 vlineto
          95 callsubr
          -29 hlineto
          -19 -4 9 15 hvcurveto
          120 -1 callsubr
          29 154 callgsubr
          -235 hmoveto
          -120 vlineto
          -15 -4 -9 -19 -75 callsubr
          120 -86 callsubr
          29 hlineto
          19 4 -9 -15 hvcurveto
          endchar
        </CharString>
        <CharString name="dvLLA">
          233 112 callsubr
          465 194 rmoveto
          113 -770 -113 444 -58 vlineto
          -34 -4 -19 -17 -3 -25 rrcurveto
          -5 hlineto
          299 callsubr
          -116 261 callgsubr
          -140 vlineto
          -93 45 -9 callsubr
          116 hlineto
          47 25 17 30 4 hvcurveto
          5 hlineto
          -30 4 25 -17 47 hhcurveto
          115 hlineto
          86 45 -20 callgsubr
          140 vlineto
          79 -33 37 -63 9 vhcurveto
          59 vlineto
          endchar
        </CharString>
        <CharString name="dvLL_YA">
          851 112 callsubr
          159 137 rmoveto
          115 callsubr
          579 -247 25 callsubr
          -1388 -113 894 177 callsubr
          -187 hlineto
          -90 callgsubr
        </CharString>
        <CharString name="dvL_BA">
          589 709 234 callgsubr
          -1126 -113 896 142 callsubr
          -392 hlineto
          -37 -15 -17 -30 -4 hvcurveto
          -5 hlineto
          30 -4 -15 17 -37 hhcurveto
          -99 callgsubr
          48 -154 hlineto
          45 callsubr
        </CharString>
        <CharString name="dvL_BHA">
          739 508 642 rmoveto
          -528 -113 528 hlineto
          270 -314 40 callgsubr
          -336 vlineto
          -23 callsubr
          -206 211 callgsubr
          124 callgsubr
          170 -86 callsubr
          29 hlineto
          19 4 -9 -15 hvcurveto
          -135 170 135 -1 callsubr
          49 -122 hlineto
          98 callgsubr
        </CharString>
        <CharString name="dvL_DA">
          490 1007 642 rmoveto
          -1027 -113 797 -57 -335 hlineto
          -37 -15 -17 -30 -4 hvcurveto
          -5 hlineto
          30 -4 -15 17 -37 hhcurveto
          -99 callgsubr
          48 -154 hlineto
          -18 callgsubr
        </CharString>
        <CharString name="dvL_DDA">
          478 912 260 callsubr
          -1015 -113 762 -57 -300 vlineto
          -37 -15 -17 -30 -4 hvcurveto
          -5 hlineto
          30 -4 -15 17 -37 hhcurveto
          -99 callgsubr
          48 -49 hlineto
          -71 callsubr
          endchar
        </CharString>
        <CharString name="dvL_DDHA">
          516 944 359 281 callsubr
          -1053 -113 794 -57 -332 vlineto
          -37 -15 -17 -30 -4 hvcurveto
          -5 hlineto
          30 -4 -15 17 -37 hhcurveto
          -99 callgsubr
          45 -232 hlineto
          -69 callgsubr
          125 -100 callsubr
          -25 callgsubr
          endchar
        </CharString>
        <CharString name="dvL_D_RA">
          490 1007 642 rmoveto
          -1027 -113 797 -57 -335 hlineto
          -37 -15 -17 -30 -4 hvcurveto
          -5 hlineto
          30 -4 -15 17 -37 hhcurveto
          -99 callgsubr
          48 -154 hlineto
          56 callgsubr
        </CharString>
        <CharString name="dvL_GA">
          742 736 191 -64 callsubr
          505 451 rmoveto
          -1279 -113 799 -57 -337 hlineto
          -37 -15 -17 -30 -4 hvcurveto
          -5 hlineto
          30 -4 -15 17 -37 hhcurveto
          -99 callgsubr
          50 -2 hlineto
          -152 -103 callgsubr
          324 120 callsubr
        </CharString>
        <CharString name="dvL_HA">
          491 1008 642 rmoveto
          -1028 -113 798 -57 -336 hlineto
          -37 -15 -17 -30 -4 hvcurveto
          -5 hlineto
          30 -4 -15 17 -37 hhcurveto
          -99 callgsubr
          49 -41 53 callgsubr
          -74 vlineto
          -49 callsubr
          247 113 -215 -34 callsubr
          215 170 60 hlineto
          endchar
        </CharString>
        <CharString name="dvL_JA">
          729 1246 642 rmoveto
          -1266 -113 1036 252 callsubr
          -266 vlineto
          -37 -15 -17 -30 -4 hvcurveto
          -5 hlineto
          30 -4 -15 17 -37 hhcurveto
          -99 callgsubr
          47 -154 58 callsubr
        </CharString>
        <CharString name="dvL_JxA">
          732 691 -117 -28 callsubr
          558 630 rmoveto
          -1269 -113 1039 252 callsubr
          -269 vlineto
          -37 -15 -17 -30 -4 hvcurveto
          -5 hlineto
          30 -4 -15 17 -37 hhcurveto
          -99 callgsubr
          50 -154 58 callsubr
        </CharString>
        <CharString name="dvL_KA">
          726 1243 233 callgsubr
          -1263 -113 808 13 callgsubr
          -305 hlineto
          -37 -15 -17 -30 -4 hvcurveto
          -5 hlineto
          30 -4 -15 17 -37 hhcurveto
          -99 callgsubr
          52 -154 hlineto
          -99 callsubr
        </CharString>
        <CharString name="dvL_KHA">
          932 1449 642 rmoveto
          -1469 -113 747 hlineto
          -27 callsubr
          -266 hlineto
          -37 -15 -17 -30 -4 hvcurveto
          -5 hlineto
          30 -4 -15 17 -37 hhcurveto
          -99 callgsubr
          47 -244 105 callsubr
          294 -314 hlineto
          -105 callsubr
          27 16 5 11 10 hvcurveto
          -94 -89 callsubr
          endchar
        </CharString>
        <CharString name="dvL_K_YA">
          1124 1411 -78 callgsubr
          -230 -117 rmoveto
          -15 -69 callsubr
          -147 -55 callgsubr
          153 189 143 callgsubr
          -1661 -113 808 12 callsubr
          -305 hlineto
          -37 -15 -17 -30 -4 hvcurveto
          -5 hlineto
          30 -4 -15 17 -37 hhcurveto
          -99 callgsubr
          52 -154 hlineto
          109 callgsubr
          255 -86 callsubr
          52 -74 hlineto
          -90 callgsubr
        </CharString>
        <CharString name="dvL_LA">
          741 1258 642 rmoveto
          -1278 -113 1048 262 callgsubr
          -373 hlineto
          -37 -15 -17 -30 -4 hvcurveto
          -5 hlineto
          30 -4 -15 17 -37 hhcurveto
          -99 callgsubr
          52 hlineto
          -5 0 -4 -5 vvcurveto
          54 callgsubr
        </CharString>
        <CharString name="dvL_L_YA">
          1124 1411 -59 callsubr
          104 -64 callgsubr
          49 -5 callsubr
          -2 callgsubr
          -1661 -113 1167 hlineto
          -61 callsubr
          -43 -79 callgsubr
          -226 hlineto
          -72 callsubr
          -373 33 callsubr
          hlineto
          -5 0 -4 -5 vvcurveto
          251 callgsubr
          124 callgsubr
          162 102 callgsubr
          -114 hlineto
          -90 callgsubr
        </CharString>
        <CharString name="dvL_MA">
          742 1029 432 186 callsubr
          -1279 -113 801 -97 -339 33 callsubr
          -114 hlineto
          -104 callgsubr
          114 78 -319 -89 callsubr
          endchar
        </CharString>
        <CharString name="dvL_PA">
          497 784 234 callsubr
          -1034 -113 559 -57 -97 hlineto
          -37 -15 -17 -30 -4 hvcurveto
          -5 hlineto
          30 -4 -15 17 -37 hhcurveto
          -99 callgsubr
          48 -154 hlineto
          109 callgsubr
          529 60 vlineto
          endchar
        </CharString>
        <CharString name="dvL_PHA">
          722 784 -17 callsubr
          257 callsubr
          -1259 -113 559 -57 -97 vlineto
          -37 -15 -17 -30 -4 hvcurveto
          -5 hlineto
          30 -4 -15 17 -37 hhcurveto
          -99 callgsubr
          48 -154 hlineto
          -99 callsubr
        </CharString>
        <CharString name="dvL_SA">
          711 998 363 rmoveto
          -70 hlineto
          -74 callsubr
          70 hlineto
          -2 callgsubr
          -1248 -113 750 8 callgsubr
          -269 hlineto
          -37 -15 -17 -30 -4 hvcurveto
          -5 hlineto
          30 -4 -15 17 -37 hhcurveto
          -99 callgsubr
          50 -252 -94 callgsubr
          287 -250 -95 callsubr
        </CharString>
        <CharString name="dvL_TA">
          494 1011 642 rmoveto
          -1031 -113 801 -57 -339 hlineto
          -37 -15 -17 -30 -4 hvcurveto
          -5 hlineto
          30 -4 -15 17 -37 hhcurveto
          -99 callgsubr
          47 -252 hlineto
          -22 callsubr
        </CharString>
        <CharString name="dvL_THA">
          643 501 642 rmoveto
          -521 -113 521 hlineto
          659 113 rmoveto
          -231 hlineto
          1 -113 rlineto
          -304 vlineto
          31 callsubr
          181 hlineto
          23 16 6 10 10 hvcurveto
          -94 -89 callsubr
          endchar
        </CharString>
        <CharString name="dvL_TH_YA">
          1021 501 642 rmoveto
          -521 -113 521 hlineto
          807 -304 25 callsubr
          -608 -113 114 177 callsubr
          -167 hlineto
          31 callsubr
          211 hlineto
          32 17 11 18 8 hvcurveto
          -20 27 40 -9 56 -30 callsubr
        </CharString>
        <CharString name="dvL_TTA">
          492 1009 642 rmoveto
          -1029 -113 799 -57 -337 hlineto
          -37 -15 -17 -30 -4 hvcurveto
          -5 hlineto
          30 -4 -15 17 -37 hhcurveto
          -99 callgsubr
          50 -232 hlineto
          -62 callsubr
        </CharString>
        <CharString name="dvL_TTHA">
          492 779 137 36 callgsubr
          -1029 -113 680 -57 -218 vlineto
          -37 -15 -17 -30 -4 hvcurveto
          -5 hlineto
          30 -4 -15 17 -37 hhcurveto
          -99 callgsubr
          50 -14 hlineto
          -218 -103 callgsubr
          150 callsubr
        </CharString>
        <CharString name="dvL_VA">
          536 1018 642 rmoveto
          -1038 -113 808 -37 callgsubr
          -305 hlineto
          -37 -15 -17 -30 -4 hvcurveto
          -5 hlineto
          30 -4 -15 17 -37 hhcurveto
          -99 callgsubr
          52 -154 hlineto
          109 callgsubr
          529 60 vlineto
          endchar
        </CharString>
        <CharString name="dvL_V_DDA">
          727 1161 260 callsubr
          -1264 -113 1011 -57 -63 242 callsubr
          -43 211 callgsubr
          63 -73 callgsubr
          -72 -79 callgsubr
          -22 121 callgsubr
          59 -170 -4 vlineto
          -92 callgsubr
          161 144 callsubr
          -299 hlineto
          -37 -15 -17 -30 -4 hvcurveto
          -5 hlineto
          30 -4 -15 17 -37 hhcurveto
          -99 callgsubr
          46 -191 hlineto
          -93 45 -9 callsubr
          61 hlineto
          32 17 8 15 9 hvcurveto
          -44 13 38 -20 84 hhcurveto
          122 -85 callsubr
          104 vlineto
          73 -31 34 -109 vhcurveto
          -63 -91 callgsubr
          11 -82 callsubr
          endchar
        </CharString>
        <CharString name="dvL_YA">
          634 921 -59 callsubr
          104 -64 callgsubr
          49 -5 callsubr
          -2 callgsubr
          -1171 -113 677 hlineto
          -61 callsubr
          -43 -79 callgsubr
          -226 33 callsubr
          -114 hlineto
          -90 callgsubr
        </CharString>
        <CharString name="dvM">
          -21 268 215 rmoveto
          -80 callsubr
          308 210 rmoveto
          113 -606 214 callgsubr
          -97 109 callsubr
          -120 -46 callgsubr
          138 113 -138 97 vlineto
          endchar
        </CharString>
        <CharString name="dvMA">
          229 516 432 186 callsubr
          -766 -113 288 -23 callgsubr
          78 -319 -89 callsubr
          endchar
        </CharString>
        <CharString name="dvM_BA">
          562 735 369 rmoveto
          72 103 -155 181 callsubr
          411 126 callgsubr
          -94 14 rmoveto
          -47 callgsubr
          -414 hmoveto
          -80 callsubr
          811 323 rmoveto
          -1109 214 callgsubr
          -23 callgsubr
          74 -114 vlineto
          45 callsubr
        </CharString>
        <CharString name="dvM_BHA">
          693 263 callsubr
          84 311 callsubr
          231 callgsubr
          84 vlineto
          15 8 5 15 vhcurveto
          45 hlineto
          960 323 rmoveto
          -230 -210 -78 98 -73 callsubr
          -82 -312 97 47 113 -497 -113 280 -97 -80 242 callsubr
          -120 179 callgsubr
          114 74 128 callsubr
        </CharString>
        <CharString name="dvM_BH_RA">
          693 732 290 -100 callgsubr
          24 311 callsubr
          -119 -100 callgsubr
          99 -82 callsubr
          45 hlineto
          960 308 rmoveto
          -230 -195 -78 83 -73 callsubr
          -67 -312 82 47 113 -497 -113 280 -82 -80 242 callsubr
          -135 179 callgsubr
          129 74 -54 173 callsubr
        </CharString>
        <CharString name="dvM_BH_VA">
          938 732 215 174 callgsubr
          -482 168 callsubr
          1201 327 rmoveto
          -505 -113 275 37 callsubr
          -70 -38 -14 -30 -18 hvcurveto
          -88 58 callgsubr
          45 -9 callsubr
          61 hlineto
          27 16 5 11 10 hvcurveto
          -94 -89 callsubr
          endchar
        </CharString>
        <CharString name="dvM_BH_YA">
          1067 1354 -59 callsubr
          100 -64 callgsubr
          53 -5 callsubr
          -622 -314 174 callgsubr
          -482 168 callsubr
          1334 327 rmoveto
          -608 -113 114 hlineto
          26 8 -8 -26 290 callgsubr
          -199 58 callgsubr
          51 -34 110 vhcurveto
          225 callsubr
          -94 -89 callsubr
          endchar
        </CharString>
        <CharString name="dvM_B_RA">
          562 735 369 rmoveto
          72 103 -155 181 callsubr
          411 126 callgsubr
          -71 -127 178 callgsubr
          50 -60 rcurveline
          -2 -1 -3 -1 -4 hhcurveto
          -518 24 rmoveto
          -80 callsubr
          811 323 rmoveto
          -1109 214 callgsubr
          -23 callgsubr
          74 -114 221 callgsubr
        </CharString>
        <CharString name="dvM_B_YA">
          940 1227 189 callsubr
          -230 -117 rmoveto
          -15 -69 callsubr
          -125 -118 hlineto
          -19 6 -33 203 callsubr
          -41 51 rlineto
          72 103 -155 181 callsubr
          525 hlineto
          -61 callsubr
          -315 -163 rmoveto
          -47 callgsubr
          -414 hmoveto
          -80 callsubr
          1189 323 rmoveto
          -1487 214 callgsubr
          -23 callgsubr
          74 -114 vlineto
          -93 45 -9 callsubr
          170 hlineto
          36 23 10 18 13 267 callgsubr
          59 -30 callsubr
        </CharString>
        <CharString name="dvM_DA">
          474 761 472 rmoveto
          -98 hlineto
          -67 -38 -13 -27 -19 hvcurveto
          -91 97 313 hlineto
          -483 -70 callsubr
          713 323 rmoveto
          -1011 214 callgsubr
          -23 callgsubr
          75 -114 -3 callgsubr
        </CharString>
        <CharString name="dvM_HA">
          473 760 472 rmoveto
          -98 181 callsubr
          312 hlineto
          -482 -70 callsubr
          712 323 rmoveto
          -1010 214 callgsubr
          -23 callgsubr
          74 -1 -66 callsubr
          -74 vlineto
          -49 callsubr
          247 113 -215 -34 callsubr
          215 170 60 hlineto
          endchar
        </CharString>
</ttFont>
